<svg xmlns="http://www.w3.org/2000/svg" data-name="Layer 1" viewBox="0 0 128 128"><path d="M126.91468,58.29486a4.999,4.999,0,0,0-4.98363-4.54694,5.67747,5.67747,0,0,0-1.61747.23975,5.86467,5.86467,0,0,0-2.16417-1.09039l-.04755-.1c-.11365-.23932-.23536-.49536-.36951-.7677a5.83579,5.83579,0,0,0-5.28826-3.5152,6.4734,6.4734,0,0,0-2.33092.45209,4.89641,4.89641,0,0,0-2.58972-.97034,5.67452,5.67452,0,0,0-3.25135-1.21094c-.08893-.00433-.175-.00635-.26081-.00635q-.06006,0-.11981.00134l-2.12956-5.05682a4,4,0,0,0-1.73954-1.94177,8.82928,8.82928,0,0,1-1.23654-.87091,5.38411,5.38411,0,0,0-1.93479-5.42017,5.59491,5.59491,0,0,0-3.3365-1.08807,8.97871,8.97871,0,0,0-4.7581,1.69513c-.06818.02539-.13312.04169-.19336.06a6.09476,6.09476,0,0,0-2.56194,1.42493,4.8889,4.8889,0,0,0-2.292-.58276,5.29734,5.29734,0,0,0-3.203-1.44775,6.04163,6.04163,0,0,0-1.20852-2.6098,5.33949,5.33949,0,0,0-4.16537-1.9726,6.04852,6.04852,0,0,0-1.59275.21838,5.71606,5.71606,0,0,0-8.04863,1.08148,10.87819,10.87819,0,0,0-3.0763,1.27606c-.23646.13-.55488.30505-.79836.42273a6.88486,6.88486,0,0,0-1.61173-.19647,6.77243,6.77243,0,0,0-3.891,1.31921c-.19391.12708-.35358.23163-.50184.31061a9.30726,9.30726,0,0,1-1.02334.06372A6.33128,6.33128,0,0,0,50.304,34.79175a5.90944,5.90944,0,0,0-2.725-.68793,6.05387,6.05387,0,0,0-5.32024,3.4704,5.60489,5.60489,0,0,0,.23865,5.84552,7.49577,7.49577,0,0,0-.87422.5509,4.9398,4.9398,0,0,0-2.19273,4.30865,6.04306,6.04306,0,0,0-2.63708-.57031A9.04457,9.04457,0,0,0,31.91573,49.3c-.0542.03479-.09986.06213-.13721.08344-.03839-.00635-.07849-.01312-.119-.01923a9.82016,9.82016,0,0,0-1.53592-.13513q-.09155,0-.18274.00214A5.17738,5.17738,0,0,0,25.488,46.64093l-.06342.00043a7.30021,7.30021,0,0,0-2.30834-1.56146,5.38924,5.38924,0,0,0-2.05058-.407,6.59466,6.59466,0,0,0-3.02277.8266c-.0871.04327-.19483.09674-.27857.1355a7.13681,7.13681,0,0,0-1.38406-.1427,4.95377,4.95377,0,0,0-4.61094,2.92328,4.62036,4.62036,0,0,0-3.60188,3.1803c-.18012-.09662-.35908-.18542-.53553-.26624a4.00012,4.00012,0,0,0-5.58074,2.817,6.725,6.725,0,0,1-.489,1.46228A6.49886,6.49886,0,0,0,.679,60.119c.01178.134.027.30841.03571.45331a4.7957,4.7957,0,0,0,.26624,5.42554,4.95353,4.95353,0,0,0,1.01394,2.72156,5.55822,5.55822,0,0,0,2.53967,1.82513,5.24569,5.24569,0,0,0,.009.7865A6.471,6.471,0,0,0,8.224,76.35138a11.19049,11.19049,0,0,0,2.21312.92969,5.21137,5.21137,0,0,0-.51472,1.75452,5.07559,5.07559,0,0,0,2.95178,5.1571,12.44868,12.44868,0,0,0,.35639,1.2782c.06891.20435.12555.38129.17475.53479.77651,2.42072,1.95628,3.52411,4.26724,3.91949a4.40135,4.40135,0,0,0,.947,3.57947,4.10944,4.10944,0,0,0,3.07166,1.40649,4.293,4.293,0,0,0,3.16236-1.43622,3.30668,3.30668,0,0,1,.65687-.45251,7.64643,7.64643,0,0,0,6.479,3.77246,6.21034,6.21034,0,0,0,1.36923-.144,4,4,0,0,0,3.09943-3.89728V80.88794L38.7874,80.263l4.5676,3.00555a8.29684,8.29684,0,0,0,5.43835,4.58191,7.3815,7.3815,0,0,0,1.76444.20679,13.42724,13.42724,0,0,0,3.56282-.59015V90.076a4.00185,4.00185,0,0,0,2.96387,3.8645,4.00085,4.00085,0,0,0,3.95779,3.41638h1.61679l.74843.80243a3.99942,3.99942,0,0,0,1.05782.80908A7.58863,7.58863,0,0,0,68.03887,100a4.7938,4.7938,0,0,0,3.57606-1.53314,5.0506,5.0506,0,0,0,1.28384-2.85327c.48915-.239,1.04061-.48914,1.41891-.66077.84859-.38489,1.65012-.74841,2.29357-1.12671a5.66062,5.66062,0,0,0,1.88566-1.84186,7.47933,7.47933,0,0,0,3.78542,1.186A4.8129,4.8129,0,0,0,86.044,91.437a4.669,4.669,0,0,0,.78-1.37976c.492.047.95907.05975,1.38766.05975.33967,0,.6833-.00854,1.02846-.01752.27814-.00726.55757-.015.8362-.015a5.46737,5.46737,0,0,1,.97243.06647,7.002,7.002,0,0,0,1.37637.13989,7.08285,7.08285,0,0,0,2.27086-.38922,9.68867,9.68867,0,0,1,1.24716.78625c2.61859,1.87592,4.8618,2.78784,6.85775,2.78784a5.222,5.222,0,0,0,3.8583-1.55261,4.00046,4.00046,0,0,0,1.016-3.32062c.09662-.15741.20649-.32788.2942-.464.1369-.2124.2707-.4209.39368-.62323a5.95324,5.95324,0,0,0,.76912-4.29932,6.75017,6.75017,0,0,0,3.89193-2.25165,5.58185,5.58185,0,0,0,.89009-6.11981c.024-.05365.04791-.10822.07147-.16321a5.91684,5.91684,0,0,0,2.6311.67377,5.464,5.464,0,0,0,3.47529-1.35651c.19574-.15222.36488-.28375.5829-.42261a5.33815,5.33815,0,0,0,2.32622-5.34747,10.07168,10.07168,0,0,0,3.83455-3.58447A5.096,5.096,0,0,0,126.91468,58.29486ZM123.58,62.32019c-1.09542,1.53467-1.92076,2.58551-3.75643,2.58551-.14917,0-.30488-.007-.468-.02112q-.06738-.00586-.12824-.0058c-1.92106-.00006.92305,4.28912-.70082,5.32318-1.03145.6568-1.34494,1.15308-1.90965,1.15308a3.37749,3.37749,0,0,1-1.52524-.62512c-1.974-1.16907-3.23743-.79193-3.82961-1.31989,0,0-.59224,3.80884-1.57926,4.75165s1.81614,2.45129.31586,4.186a2.79484,2.79484,0,0,1-2.16368.98718,3.36223,3.36223,0,0,1-2.81091-1.5152.87488.87488,0,0,0-.76558-.47974c-.98812,0-2.13426,1.67657-.85317,3.30817,1.65824,2.11182,2.25041,3.6203,1.53977,4.78937s-1.85557,2.56439-1.2239,3.77118a1.271,1.271,0,0,1-.92019.267c-.80226,0-2.21013-.37891-4.52817-2.03949-1.77622-1.27246-2.799-1.61566-3.55031-1.61572-.8796-.00006-1.3873.47034-2.29729.47034a2.96342,2.96342,0,0,1-.58778-.0614,8.93624,8.93624,0,0,0-1.761-.145c-.624,0-1.25155.03253-1.86466.03253a5.49478,5.49478,0,0,1-3.04663-.6795,1.95915,1.95915,0,0,0-1.02114-.364c-1.06637-.00018-1.352,1.55823-1.07131,2.92841.15625.76288-.161,1.1684-.7903,1.1684-.80177,0-2.11015-.658-3.59212-2.07349a2.04957,2.04957,0,0,0-1.30105-.71594c-1.3779,0-1.57492,3.27386-2.80493,3.99689-1.53977.90509-5.76422,2.33813-5.68524,3.43176C68.95771,94.623,69.16914,96,68.03887,96a3.955,3.955,0,0,1-1.70615-.56891l-1.93455-2.07416H61.04226V90.076H58.12069V87.28534a3.69176,3.69176,0,0,0-.75014-3.6203,1.87214,1.87214,0,0,0-1.52316-.616c-1.52689-.00012-3.5854,1.00824-5.2896,1.00824a3.3661,3.3661,0,0,1-.807-.09052c-2.44781-.60339-3.15851-3.35632-3.15851-3.35632l-7.10653-4.67627L32.4581,77.8197V92.75354a2.2916,2.2916,0,0,1-.46858.04132c-.78249,0-2.374-.30121-3.44-2.53027a2.468,2.468,0,0,0-2.36034-1.52777,6.86756,6.86756,0,0,0-4.233,1.98035c-.12738.13385-.21186.194-.2649.194-.44044,0,1.2803-4.13916-1.43277-4.644-3.04-.56567-2.4873.15082-3.23743-2.07416s0-3.01691-2.01353-3.46948c-1.86173-.4184-1.293-2.61023.95669-2.61023a3.87546,3.87546,0,0,1,.58308.04584,3.01369,3.01369,0,0,0,.45356.03638c2.04155,0,1.81913-2.46228,3.39436-2.46228a1.89035,1.89035,0,0,1,.416.05011,2.34611,2.34611,0,0,0,.51106.06525c1.464,0,.56526-2.11121,1.463-3.72333.67317-1.20886-.729-1.90894-2.32738-1.909a4.93411,4.93411,0,0,0-2.17345.476c-2.01353,1.01825-3.27692-.1131-4.34293,1.697a1.95375,1.95375,0,0,1-1.72764,1.14417,4.9951,4.9951,0,0,1-2.14146-.72931c-1.30288-.67883-2.25041-2.03644-.86861-3.09235,1.352-1.03314.134-2.68-1.13949-2.68-.02814,0-.05621.00079-.08441.00244-.11884.0069-.244.01062-.373.01062-1.28421,0-2.94684-.37109-2.58807-1.70764.39484-1.47076-1.77665-1.47076-.75014-2.90381s-.11841-3.54492.59224-4.56311A9.82582,9.82582,0,0,0,5.9664,54.96643s2.88214,1.31989,2.96106,3.6203c0,0,2.96112-.49023,3.15851-1.3576s-.19739-2.33813-.19739-3.99744,2.17143-.49023,2.92157-1.39532c.66463-.80194.08954-2.34406,1.57016-2.34406a3.3438,3.3438,0,0,1,.68025.08136,3.7414,3.7414,0,0,0,.77309.08368c1.49161,0,2.28527-.98444,3.23206-.98444a1.39335,1.39335,0,0,1,.53517.10883c1.24581.50995,1.65751,1.9397,3.11512,1.9397a2.64711,2.64711,0,0,0,.5171-.05414A1.30376,1.30376,0,0,1,25.488,50.641c1.47629,0,1.445,2.86047,2.97778,2.86047a1.57691,1.57691,0,0,0,.47846-.08124,3.80886,3.80886,0,0,1,1.17935-.1911c.666,0,1.19363.17609,1.81168.17609a3.82991,3.82991,0,0,0,2.14152-.7392,5.102,5.102,0,0,1,2.71649-.957,1.91582,1.91582,0,0,1,.95522.20282s1.62674,1.79028,2.939,1.79028a1.31657,1.31657,0,0,0,.21949-.01788c1.05825-.17834,1.724-.89587,2.558-.89587a1.6,1.6,0,0,1,.71889.17938,7.04332,7.04332,0,0,0,2.577.96753,1.04174,1.04174,0,0,0,1.0552-.779c.55275-1.54614,1.02651-3.394-1.65818-3.80884s-3.35584-1.28223-2.17143-2.1496,2.25041-.45251,2.40831-2.33813,1.50028-2.07416.31586-2.82837-1.38186-1.697-.908-2.60211A2.169,2.169,0,0,1,47.579,38.10382a2.22817,2.22817,0,0,1,1.34268.53345,2.29788,2.29788,0,0,0,1.42392.48969,3.60709,3.60709,0,0,0,2.56365-1.28162c.51326-.67883,2.84265-.07544,4.34293-.792,1.17282-.56012,1.69419-1.28156,2.75238-1.28156a3.35949,3.35949,0,0,1,1.03774.18793,1.95292,1.95292,0,0,0,.60756.09326c1.68027,0,3.57979-1.907,5.04655-1.907q.05548,0,.11011.00366.06061.00412.118.00409c1.53,0,1.34756-2.15369,3.11945-2.15369,1.47549,0,1.67429,1.61816,2.86133,1.61816a2.21474,2.21474,0,0,0,1.00783-.29828,2.68387,2.68387,0,0,1,1.2192-.35028c1.26724,0,1.736,1.434,1.426,2.91467-.30732,1.46783-.20789,2.273.65211,2.273a2.88138,2.88138,0,0,0,.92714-.19885A5.86056,5.86056,0,0,1,79.96,37.52692a1.51316,1.51316,0,0,1,1.45444,1.03491,1.00937,1.00937,0,0,0,1.02621.51892c.393,0,.82045-.08185,1.17123-.08185.48091,0,.81764.15369.72414.88287-.105.81958.5279,1.18671,1.31637,1.18671a2.74164,2.74164,0,0,0,2.55273-1.56384c.59224-1.77246,1.38186-1.20679,2.64526-1.99872a5.665,5.665,0,0,1,2.66418-1.10345,1.58909,1.58909,0,0,1,.968.31152c1.02651.75421-.27637,2.37579.47376,3.80884a9.36637,9.36637,0,0,0,3.119,2.753l4.22445,10.03131s.23035-2.52826,1.71146-2.52826c.02155,0,.04309.00049.06519.00159,1.30252.06378,1.67283,1.47711,2.37737,1.47711a.74588.74588,0,0,0,.42573-.15723.58427.58427,0,0,1,.34089-.11371c.772,0,1.56619,1.58417,2.53149,1.58417a.98347.98347,0,0,0,.56251-.18823,4.09666,4.09666,0,0,1,2.12968-.8681,1.88989,1.88989,0,0,1,1.69993,1.2829c.93111,1.89,1.21438,2.9425,2.61,2.9425.0246,0,.04932-.00031.07465-.001l.03235-.00043c1.2023,0,1.84269,1.73511,2.95941,1.73511a1.381,1.381,0,0,0,.7195-.2262,2.84734,2.84734,0,0,1,1.391-.49945c.68617,0,1.03109.55823,1.05685,1.51764C123.02733,60.73633,124.76448,60.66089,123.58,62.32019Z"></path></svg>