<svg viewBox="0 0 700 700" version="1.1" xmlns="http://www.w3.org/2000/svg">
<path d="M0 0 C228.36 0 456.72 0 692 0 C692 228.36 692 456.72 692 692 C463.64 692 235.28 692 0 692 C0 463.64 0 235.28 0 0 Z " fill="#FDFDFC" transform="translate(0,0)"/>
<path d="M0 0 C0.8702179 -0.00095673 1.74043579 -0.00191345 2.63702393 -0.00289917 C4.48636955 -0.00358037 6.33571755 -0.00173028 8.18505859 0.00244141 C10.96327383 0.00771316 13.74132158 0.00253511 16.51953125 -0.00390625 C44.23661711 -0.01696509 44.23661711 -0.01696509 56.6875 3.4453125 C59.43406422 4.23650322 59.43406422 4.23650322 63.015625 4.6328125 C66.19272896 5.12159773 68.87374263 6.06319035 71.84765625 7.25390625 C74.86235454 8.34971742 77.92035867 9.16674453 81.015625 10.0078125 C92.05084734 13.11367465 102.10114527 17.88837349 112.265625 23.1328125 C112.265625 23.7928125 112.265625 24.4528125 112.265625 25.1328125 C113.255625 25.1328125 114.245625 25.1328125 115.265625 25.1328125 C115.265625 25.7928125 115.265625 26.4528125 115.265625 27.1328125 C116.1525 27.4009375 117.039375 27.6690625 117.953125 27.9453125 C121.0565916 29.057876 123.57673185 30.23477028 126.265625 32.1328125 C126.265625 32.7928125 126.265625 33.4528125 126.265625 34.1328125 C126.95140625 34.34808594 127.6371875 34.56335938 128.34375 34.78515625 C132.13508388 36.53383298 134.90102373 38.949009 138.015625 41.6953125 C138.63469727 42.23615479 139.25376953 42.77699707 139.89160156 43.33422852 C150.87762409 53.00782496 160.59893956 63.58892214 168.265625 76.1328125 C168.265625 77.1228125 168.265625 78.1128125 168.265625 79.1328125 C168.925625 79.1328125 169.585625 79.1328125 170.265625 79.1328125 C175.06810239 87.64142009 179.1892399 95.90474999 182.2578125 105.20703125 C183.15743513 108.0433912 183.15743513 108.0433912 184.3359375 110.21875 C185.43954266 112.49087827 185.8366564 114.58459265 186.265625 117.0703125 C186.7725397 119.80845019 187.25927263 122.11749207 188.328125 124.6953125 C189.48277386 127.69739954 189.68873515 130.49100056 189.984375 133.6796875 C190.35759053 136.93495625 191.04458498 140.09117431 191.765625 143.28515625 C193.27731626 151.89471036 193.4270852 160.47267416 193.390625 169.1953125 C193.38651611 170.38471436 193.38240723 171.57411621 193.37817383 172.79956055 C193.29669318 185.71468093 193.01503065 198.11007524 190.015625 210.7421875 C189.25495894 214.18103197 188.76676549 217.57685433 188.328125 221.0703125 C187.47097865 227.48090286 185.94943543 233.50132336 184.2109375 239.71484375 C183.43687143 242.51363636 182.74777185 245.29464191 182.140625 248.1328125 C180.45086079 255.98438933 177.88234743 263.54944828 175.265625 271.1328125 C175.02972656 271.88949219 174.79382813 272.64617187 174.55078125 273.42578125 C173.890625 275.3203125 173.890625 275.3203125 172.265625 278.1328125 C168.34018751 279.12450197 164.43951678 279.24824448 160.40405273 279.37255859 C152.53552949 279.63266064 144.93671428 280.53169458 137.203125 282.0078125 C136.34775146 282.16934814 135.49237793 282.33088379 134.61108398 282.49731445 C129.66905902 283.48880129 124.96496806 284.80904625 120.20629883 286.46777344 C118.04289997 287.20913694 115.85887312 287.76782748 113.640625 288.3203125 C103.57879943 291.27409803 93.92614835 297.35913027 85.265625 303.1328125 C84.275625 303.1328125 83.285625 303.1328125 82.265625 303.1328125 C82.265625 303.7928125 82.265625 304.4528125 82.265625 305.1328125 C80.64844189 306.5656843 78.96939128 307.92905999 77.265625 309.2578125 C70.65115139 314.55961995 64.46036225 319.67550182 60.265625 327.1328125 C59.605625 327.1328125 58.945625 327.1328125 58.265625 327.1328125 C57.935625 328.4528125 57.605625 329.7728125 57.265625 331.1328125 C56.605625 331.1328125 55.945625 331.1328125 55.265625 331.1328125 C54.935625 332.7828125 54.605625 334.4328125 54.265625 336.1328125 C53.605625 336.1328125 52.945625 336.1328125 52.265625 336.1328125 C51.98332031 336.86628906 51.70101562 337.59976562 51.41015625 338.35546875 C50.37877376 340.85824333 49.22329049 343.18306335 47.953125 345.5703125 C45.08611443 351.26241828 42.979339 357.12761942 40.94238281 363.15966797 C40.23801982 365.21329773 39.49997828 367.25272013 38.7578125 369.29296875 C36.00281463 377.00411638 33.74731593 384.68432221 32.22265625 392.734375 C31.96751251 394.08102486 31.96751251 394.08102486 31.70721436 395.45487976 C29.76534815 406.21592952 28.88351775 417.05502969 28.015625 427.9453125 C27.84215761 430.01766307 27.66768262 432.08992954 27.4921875 434.16210938 C27.07177995 439.15145665 26.66478387 444.14172225 26.265625 449.1328125 C24.85301422 449.46063462 23.43950304 449.78457809 22.02563477 450.10693359 C21.23858658 450.28775482 20.45153839 450.46857605 19.64064026 450.65487671 C16.15007779 451.35729945 12.76049443 451.56552226 9.203125 451.7578125 C7.97795166 451.82403809 6.75277832 451.89026367 5.49047852 451.95849609 C4.42627686 452.01602051 3.3620752 452.07354492 2.265625 452.1328125 C2.24056885 451.28162842 2.2155127 450.43044434 2.18969727 449.5534668 C2.09355949 446.34211624 1.99440034 443.13087594 1.89331055 439.91967773 C1.85046614 438.53983099 1.80876527 437.15994817 1.76831055 435.7800293 C1.06691835 411.94135373 -1.51842979 386.96555159 -11.734375 365.1328125 C-12.32540989 363.57320941 -12.90876014 362.01067238 -13.484375 360.4453125 C-15.42729162 355.54404547 -17.84055966 350.91625683 -20.296875 346.2578125 C-20.87937012 345.15046753 -20.87937012 345.15046753 -21.47363281 344.02075195 C-23.35763819 340.49934087 -25.32259577 337.32283359 -27.734375 334.1328125 C-27.734375 333.4728125 -27.734375 332.8128125 -27.734375 332.1328125 C-28.394375 332.1328125 -29.054375 332.1328125 -29.734375 332.1328125 C-30.064375 330.8128125 -30.394375 329.4928125 -30.734375 328.1328125 C-31.394375 328.1328125 -32.054375 328.1328125 -32.734375 328.1328125 C-34.25 326.62890625 -34.25 326.62890625 -35.984375 324.5703125 C-36.61730469 323.83296875 -37.25023437 323.095625 -37.90234375 322.3359375 C-38.96953737 321.05257459 -40.02204689 319.75616102 -41.03515625 318.4296875 C-52.72104655 303.523846 -72.97380872 291.67022887 -90.8046875 286.16015625 C-93.734375 285.1328125 -93.734375 285.1328125 -96.609375 283.609375 C-100.21081579 281.90769423 -103.71368159 281.19911047 -107.609375 280.5703125 C-116.09829477 279.1100384 -116.09829477 279.1100384 -119.796875 278.0078125 C-125.8778259 276.35313198 -132.46322084 276.44310398 -138.734375 276.1328125 C-145.55274279 262.43323482 -150.38641565 247.77090076 -153.83984375 232.88671875 C-154.69406665 229.30196675 -155.70168354 225.79448171 -156.734375 222.2578125 C-159.75517465 211.0939877 -161.13345135 199.56926147 -162.734375 188.1328125 C-162.84330078 187.44002197 -162.95222656 186.74723145 -163.06445312 186.03344727 C-164.00186472 179.69677756 -163.88064859 173.3380269 -163.859375 166.9453125 C-163.86324219 165.80255859 -163.86710938 164.65980469 -163.87109375 163.48242188 C-163.8595966 153.31319584 -163.34956384 143.1932096 -161.796875 133.1328125 C-161.64347656 132.1015625 -161.49007812 131.0703125 -161.33203125 130.0078125 C-160.74672626 127.19222772 -159.82608105 124.78409863 -158.734375 122.1328125 C-158.610625 121.0809375 -158.486875 120.0290625 -158.359375 118.9453125 C-157.69141719 114.87076985 -156.42903868 111.58437233 -154.83203125 107.80078125 C-153.73207938 105.12723277 -152.79212476 102.43111828 -151.859375 99.6953125 C-149.73025036 93.81133627 -146.89449173 88.52187468 -143.734375 83.1328125 C-143.14785156 82.11316406 -142.56132812 81.09351563 -141.95703125 80.04296875 C-130.77876762 61.18393502 -116.34915544 46.07292097 -98.734375 33.1328125 C-97.75855469 32.41222656 -96.78273438 31.69164062 -95.77734375 30.94921875 C-88.20142856 25.63260521 -80.12478802 21.78397242 -71.70849609 18.01708984 C-68.95753367 16.78483831 -66.22265702 15.51793958 -63.484375 14.2578125 C-58.11838405 11.81406503 -53.1028977 9.89613568 -47.30859375 8.79296875 C-44.5346694 8.14472467 -44.5346694 8.14472467 -41.2421875 6.69921875 C-35.65108019 4.55180994 -29.82213398 3.8629225 -23.921875 3.0078125 C-21.6858788 2.67400566 -19.4501852 2.33816363 -17.21484375 2 C-16.23410889 1.85675293 -15.25337402 1.71350586 -14.24291992 1.56591797 C-9.33374155 0.71833817 -5.04511013 -0.01224098 0 0 Z " fill="#0173F9" transform="translate(330.734375,119.8671875)"/>
<path d="M0 0 C27.62788892 4.60464815 27.62788892 4.60464815 40.52246094 6.99267578 C42.00714759 7.26603754 43.49186445 7.53923529 44.97660828 7.81228638 C48.91579935 8.53734834 52.85449253 9.26507655 56.7930212 9.99372721 C59.26220153 10.45045967 61.73147792 10.9066694 64.20078278 11.36272812 C72.83595716 12.95769923 81.4706578 14.55521013 90.10498047 16.15478516 C98.12970098 17.64134179 106.15556346 19.12162109 114.18193412 20.59923947 C121.11400544 21.87572688 128.04520678 23.15686589 134.97575784 24.44158161 C139.09866163 25.20574297 143.22190297 25.9679532 147.34606171 26.72531509 C151.20504109 27.43411486 155.06290901 28.1486746 158.91999245 28.86771774 C160.33376376 29.13024706 161.74792326 29.39069567 163.16248894 29.64891052 C165.09200785 30.0014551 167.02001812 30.36222717 168.94793701 30.72341919 C170.02660412 30.92286196 171.10527122 31.12230473 172.21662521 31.32779121 C174.75511756 31.9408588 176.73907087 32.71710004 179 34 C178.24976563 34.83660156 177.49953125 35.67320312 176.7265625 36.53515625 C161.11963868 54.1817816 149.2646832 73.94129395 141 96 C140.54882812 97.18722656 140.09765625 98.37445313 139.6328125 99.59765625 C127.13924182 134.63397404 125.26952126 173.4325354 131 210 C131.12745605 210.81823242 131.25491211 211.63646484 131.38623047 212.47949219 C136.97778925 247.39926159 147.02104245 291.03156367 167 321 C169.61651562 321.36831345 169.61651562 321.36831345 172.6875 321.1875 C173.85249023 321.16196045 175.01748047 321.1364209 176.21777344 321.11010742 C177.4659082 321.07377197 178.71404297 321.03743652 180 321 C208.10420832 320.60996061 232.8337844 327.0417207 255 345 C255.66644531 345.51304687 256.33289063 346.02609375 257.01953125 346.5546875 C279.82165819 364.77580022 289.19166076 396.41249433 292.5300293 424.20507812 C293.02495339 428.73661653 293.12952193 433.19912075 293.09765625 437.75390625 C293.09664917 438.45253784 293.09564209 439.15116943 293.09460449 439.87097168 C293.08944521 442.43485706 293.07552263 444.9986415 293.0625 447.5625 C293.05052574 450.67309283 293.03983809 453.78368996 293.02905273 456.89428711 C293.02353405 458.43965156 293.01799666 459.98501595 293.01243591 461.53038025 C293.00833206 462.67535477 293.00422821 463.82032928 293 465 C236.92178601 474.14928223 180.78581538 482.93505716 124.65492868 491.75402236 C114.62455657 493.33008196 104.59446311 494.90790803 94.56446561 496.48634978 C83.46821527 498.23257582 72.37178413 499.97764879 61.27516294 501.72151697 C55.0920972 502.69321297 48.90910051 503.66534283 42.72628021 504.6385994 C36.97038677 505.54459608 31.2142644 506.4491235 25.45795631 507.35248184 C23.34620939 507.68414033 21.23454533 508.01632686 19.12296867 508.34906769 C16.25454167 508.80098808 13.3858276 509.25103879 10.51702881 509.70059204 C9.67411875 509.83384498 8.8312087 509.96709792 7.96275592 510.10438883 C2.22830007 511 2.22830007 511 0 511 C0 342.37 0 173.74 0 0 Z " fill="#19A91C" transform="translate(0,114)"/>
<path d="M0 0 C228.36 0 456.72 0 692 0 C692 60.72 692 121.44 692 184 C688.35161672 185.21612776 686.21385265 184.77763539 682.40884399 184.22930908 C681.73602241 184.13427495 681.06320082 184.03924081 680.36999071 183.94132686 C678.10974002 183.62026684 675.85108131 183.28913488 673.59228516 182.95800781 C671.9744422 182.7259998 670.35651496 182.4945788 668.73851013 182.26370239 C664.33873519 181.63387571 659.94032099 180.9949874 655.54217577 180.35389042 C651.87205931 179.8196386 648.20135147 179.28951372 644.53064859 178.75930858 C635.87038134 177.50822188 627.21124059 176.2495402 618.55273438 174.98632812 C609.61855489 173.68304614 600.68251655 172.39313453 591.74546397 171.1097157 C584.07542827 170.00773167 576.40667097 168.89714784 568.73886907 167.77972674 C564.15804615 167.11227657 559.57679986 166.44817757 554.99428177 165.79245758 C550.68366771 165.175287 546.37474907 164.54740152 542.06689644 163.91125107 C540.48602792 163.67963852 538.9045984 163.45181831 537.3225956 163.22808456 C535.16178327 162.92187922 533.00342353 162.6019965 530.84512329 162.27862549 C529.63686197 162.1031078 528.42860065 161.9275901 527.18372536 161.74675369 C521.40862709 160.3921846 518.46346849 157.68905981 514.9375 153.0625 C505.94162042 141.79538349 495.58313817 132.54235961 484 124 C482.93910156 123.21753906 481.87820313 122.43507813 480.78515625 121.62890625 C441.54203898 93.63968664 393.75417909 80.4786815 345.875 80.6875 C344.53137894 80.69073273 344.53137894 80.69073273 343.16061401 80.69403076 C305.03717293 80.8406871 264.01230199 88.16333733 230.984375 108.38671875 C230.36868652 108.76320557 229.75299805 109.13969238 229.11865234 109.52758789 C227.50514546 110.54308963 225.91908332 111.60184898 224.3359375 112.6640625 C215.20931332 116.31898694 201.74576775 111.39706076 192.31005859 109.62939453 C190.42330402 109.27908414 188.53648166 108.92913874 186.64959717 108.57952881 C181.54527712 107.63271184 176.44191865 106.68080281 171.33872175 105.72795343 C165.97893888 104.72809702 160.61828254 103.73294556 155.25772095 102.73727417 C145.09794434 100.84945727 134.93896145 98.95740419 124.78025591 97.06383312 C113.27725966 94.91990783 101.77336728 92.78081076 90.26940417 90.64208055 C72.33446241 87.30761394 54.40001644 83.97049121 36.46630859 80.62939453 C35.58099331 80.46448643 34.69567802 80.29957832 33.783535 80.129673 C32.92804188 79.97031139 32.07254875 79.81094978 31.19113159 79.64675903 C30.35889171 79.491758 29.52665183 79.33675697 28.66919255 79.17705894 C27.06455613 78.87787212 25.46001814 78.57815684 23.85558963 78.27785707 C19.99705164 77.55588194 16.13733971 76.8420211 12.27443314 76.1437645 C11.52736213 76.00739826 10.78029113 75.87103203 10.01058161 75.73053348 C7.97862099 75.35988074 5.94597976 74.99296467 3.91329384 74.62631035 C1 74 1 74 0 73 C0 48.91 0 24.82 0 0 Z " fill="#FFB818" transform="translate(0,0)"/>
<path d="M0 0 C8.99472414 0.54302062 17.85709635 1.41158979 26.76928711 2.73413086 C27.95977661 2.90662857 29.15026611 3.07912628 30.37683105 3.2568512 C33.59388678 3.72416232 36.81023729 4.19598004 40.02627254 4.67025447 C43.41374771 5.1689443 46.8019728 5.66249299 50.19007874 6.15687561 C55.86822704 6.98625963 61.54574155 7.81987764 67.22290039 8.65600586 C73.77051746 9.62027305 80.31915275 10.57737333 86.86835855 11.5307855 C93.20041987 12.45278693 99.5316798 13.3801861 105.86261177 14.30990791 C108.54438019 14.70361981 111.22641999 15.09540045 113.90870476 15.48557854 C117.65199356 16.03124168 121.39432794 16.58304031 125.13647461 17.13647461 C126.23945389 17.29602631 127.34243317 17.455578 128.47883606 17.6199646 C129.50316742 17.77272354 130.52749878 17.92548248 131.58287048 18.08287048 C132.46527877 18.21246627 133.34768705 18.34206205 134.25683498 18.47558498 C137.55212174 19.10554995 140.77412361 20.07832103 144 21 C144 116.37 144 211.74 144 310 C140.82216067 311.58891966 139.18197409 312.29993473 135.86972141 312.82000256 C134.64015479 313.01805391 134.64015479 313.01805391 133.38574845 313.2201063 C132.49037666 313.35736182 131.59500487 313.49461733 130.67250061 313.6360321 C129.71669725 313.78797698 128.7608939 313.93992186 127.7761268 314.09647113 C124.56404107 314.60542498 121.35053867 315.10479561 118.13696289 315.60424805 C115.83494185 315.96699231 113.53301324 316.33032362 111.23117065 316.69419861 C104.95885815 317.68399716 98.6852726 318.66550365 92.41143346 319.64557242 C86.47856224 320.5736566 80.54665849 321.50787575 74.6147409 322.442031 C62.8119364 324.30051895 51.00819317 326.15297378 39.20385742 328.00170898 C27.84917855 329.7800336 16.49495703 331.56123283 5.14135742 333.34643555 C4.10129958 333.50996939 4.10129958 333.50996939 3.04023046 333.67680695 C0.24979951 334.11557411 -2.54062792 334.55436367 -5.33105075 334.99318252 C-33.89558953 339.48518538 -62.46092196 343.97212924 -91.02952558 348.43821627 C-97.71438691 349.48388357 -104.39829991 350.53538704 -111.081505 351.59158701 C-115.31038941 352.25942736 -119.53972777 352.92436109 -123.76915467 353.5887562 C-125.73208769 353.89784643 -127.69481112 354.2082711 -129.65730655 354.52012765 C-132.32797683 354.94439829 -134.99933866 355.36401736 -137.6709137 355.782547 C-138.44829978 355.90728618 -139.22568586 356.03202536 -140.02662909 356.16054451 C-143.71749881 356.73394735 -147.26270127 357.14366449 -151 357 C-149.08405381 326.10407774 -146.22344901 294.15183268 -128 268 C-127.19949219 266.82630859 -127.19949219 266.82630859 -126.3828125 265.62890625 C-121.80908446 259.31541085 -116.22521441 254.64391907 -110 250 C-109.35417969 249.51660156 -108.70835937 249.03320312 -108.04296875 248.53515625 C-87.19493436 234.31852278 -59.83665816 232.834092 -35.5 232.375 C-33.79034771 232.33668301 -32.08071188 232.29762418 -30.37109375 232.2578125 C-26.24753457 232.16336232 -22.12388646 232.07881262 -18 232 C-3.26367553 195.22552597 7.76576032 158.41360082 13 119 C13.09877441 118.28545654 13.19754883 117.57091309 13.29931641 116.8347168 C18.12562376 80.68218259 14.97487835 39.20149317 0.8515625 5.23828125 C0 3 0 3 0 0 Z " fill="#19A91C" transform="translate(548,205)"/>
<path d="M0 0 C31.82067811 31.82067811 1 89.99876545 1 135 C-227.36 135 -455.72 135 -691 135 C-691 126.09 -691 117.18 -691 108 C-599.65872328 93.48037081 -508.30489501 79.04188357 -416.9375 64.6875 C-415.75254897 64.50133417 -414.56759793 64.31516833 -413.34673929 64.12336111 C-401.24961463 62.22280254 -389.15247481 60.32234046 -377.05533284 58.42189211 C-374.60251163 58.03655639 -372.14969058 57.65121971 -369.69686967 57.26588207 C-363.52730515 56.29664594 -357.35773794 55.32742691 -351.18816566 54.35824013 C-294.56580032 45.46324074 -237.94615486 36.55098667 -181.32702023 27.63545054 C-171.19250013 26.03962007 -161.05795722 24.44393448 -150.92340535 22.84830576 C-144.86525745 21.89447477 -138.80711868 20.94058592 -132.7490015 19.98655987 C-130.39361641 19.61563779 -128.03823126 19.24471602 -125.68284607 18.87379456 C-124.53226914 18.69260258 -123.38169221 18.5114106 -122.19624931 18.32472795 C-115.43809063 17.26052269 -108.67984892 16.19684667 -101.92153555 15.13362426 C-96.62147857 14.29978564 -91.32146585 13.46566606 -86.02148438 12.63134766 C-84.50885885 12.39323173 -84.50885885 12.39323173 -82.96567523 12.15030539 C-70.68180669 10.21607505 -58.3997152 8.27118343 -46.12040281 6.30823433 C-43.98261504 5.9666412 -41.84473822 5.62561197 -39.70682144 5.28482723 C-39.03450666 5.17765237 -38.36219188 5.07047752 -37.66950393 4.96005493 C-37.01360975 4.85550411 -36.35771556 4.75095328 -35.6819458 4.64323425 C-30.90404141 3.88154525 -26.12710837 3.11416244 -21.35076904 2.34272766 C-19.33446809 2.02082063 -17.31813373 1.69912272 -15.30175781 1.37768555 C-14.42545967 1.23429686 -13.54916153 1.09090816 -12.6463089 0.94317436 C-8.3953382 0.27086678 -4.32054202 -0.25877444 0 0 Z " fill="#81D613" transform="translate(691,557)"/>
</svg>
