<?xml version="1.0" encoding="UTF-8"?>
<!DOCTYPE svg PUBLIC "-//W3C//DTD SVG 1.1//EN" "http://www.w3.org/Graphics/SVG/1.1/DTD/svg11.dtd">
<svg xmlns="http://www.w3.org/2000/svg" version="1.1" width="300px" height="180px" style="shape-rendering:geometricPrecision; text-rendering:geometricPrecision; image-rendering:optimizeQuality; fill-rule:evenodd; clip-rule:evenodd" xmlns:xlink="http://www.w3.org/1999/xlink">
<g><path style="opacity:1" fill="#fdfdfd" d="M -0.5,-0.5 C 99.5,-0.5 199.5,-0.5 299.5,-0.5C 299.5,59.5 299.5,119.5 299.5,179.5C 199.5,179.5 99.5,179.5 -0.5,179.5C -0.5,119.5 -0.5,59.5 -0.5,-0.5 Z"/></g>
<g><path style="opacity:1" fill="#495d66" d="M 214.5,69.5 C 215.492,69.3284 216.158,69.6618 216.5,70.5C 191.209,82.8119 166.209,95.6452 141.5,109C 138.915,110.128 136.248,110.961 133.5,111.5C 107.243,105.874 84.5761,93.7069 65.5,75C 59.1982,73.2272 52.8648,71.5605 46.5,70C 58.7245,64.9711 70.8911,59.8045 83,54.5C 89.8469,56.2763 96.6803,57.7763 103.5,59C 116.5,45.3333 129.5,31.6667 142.5,18C 151.114,15.8492 159.781,14.0159 168.5,12.5C 169.492,12.3284 170.158,12.6618 170.5,13.5C 162.151,16.5617 153.818,19.7283 145.5,23C 133.65,35.3494 121.983,47.8494 110.5,60.5C 111.991,61.2436 113.491,61.9103 115,62.5C 126.487,49.7132 138.32,37.2132 150.5,25C 168.391,17.7069 186.391,11.0402 204.5,5C 187.705,14.3 171.038,23.8 154.5,33.5C 143.046,46.455 131.046,58.955 118.5,71C 107.078,69.5949 95.7442,67.4283 84.5,64.5C 82.9334,64.477 81.6001,64.977 80.5,66C 83.1667,66.6667 85.8333,67.3333 88.5,68C 83.1667,68.3333 77.8333,68.6667 72.5,69C 89.531,85.6683 109.698,96.8349 133,102.5C 160.297,91.7906 187.464,80.7906 214.5,69.5 Z"/></g>
<g><path style="opacity:1" fill="#919da2" d="M 170.5,13.5 C 170.158,12.6618 169.492,12.3284 168.5,12.5C 171.28,11.1798 174.28,10.6798 177.5,11C 175.1,11.7436 172.767,12.5769 170.5,13.5 Z"/></g>
<g><path style="opacity:1" fill="#66828f" d="M 261.5,48.5 C 263.415,48.2155 265.081,48.5489 266.5,49.5C 228.746,57.0846 191.079,65.0846 153.5,73.5C 152.479,72.9984 152.312,72.3317 153,71.5C 165.333,55.8333 177.667,40.1667 190,24.5C 184.963,36.416 179.463,48.2493 173.5,60C 202.765,56.0341 232.099,52.2008 261.5,48.5 Z"/></g>
<g><path style="opacity:1" fill="#92a6af" d="M 266.5,49.5 C 265.081,48.5489 263.415,48.2155 261.5,48.5C 270.979,46.6482 280.645,45.4815 290.5,45C 282.478,46.5069 274.478,48.0069 266.5,49.5 Z"/></g>
<g><path style="opacity:1" fill="#818f95" d="M 216.5,70.5 C 216.158,69.6618 215.492,69.3284 214.5,69.5C 219.107,67.452 223.773,65.2854 228.5,63C 229.5,62.3333 230.5,62.3333 231.5,63C 226.473,65.5133 221.473,68.0133 216.5,70.5 Z"/></g>
<g><path style="opacity:1" fill="#334148" d="M 175.5,124.5 C 178.5,124.5 181.5,124.5 184.5,124.5C 184.169,132.86 184.502,141.193 185.5,149.5C 186.107,149.376 186.44,149.043 186.5,148.5C 190.298,145.204 193.964,141.704 197.5,138C 201.167,137.333 204.833,137.333 208.5,138C 203.786,142.378 199.453,147.044 195.5,152C 199.624,158.295 203.957,164.461 208.5,170.5C 205.167,171.833 201.833,171.833 198.5,170.5C 195.086,166.006 191.919,161.34 189,156.5C 184.971,160.544 183.471,165.544 184.5,171.5C 181.5,171.5 178.5,171.5 175.5,171.5C 175.5,155.833 175.5,140.167 175.5,124.5 Z"/></g>
<g><path style="opacity:1" fill="#9da4a7" d="M 175.5,124.5 C 178.625,123.521 181.958,123.187 185.5,123.5C 185.174,132.017 185.507,140.35 186.5,148.5C 186.44,149.043 186.107,149.376 185.5,149.5C 184.502,141.193 184.169,132.86 184.5,124.5C 181.5,124.5 178.5,124.5 175.5,124.5 Z"/></g>
<g><path style="opacity:1" fill="#9aa1a5" d="M 258.5,124.5 C 255.5,124.5 252.5,124.5 249.5,124.5C 249.5,137.833 249.5,151.167 249.5,164.5C 248.504,151.01 248.171,137.344 248.5,123.5C 252.042,123.187 255.375,123.521 258.5,124.5 Z"/></g>
<g><path style="opacity:1" fill="#314047" d="M 258.5,124.5 C 258.333,137.504 258.5,150.504 259,163.5C 260.699,164.406 262.533,164.739 264.5,164.5C 264.5,166.833 264.5,169.167 264.5,171.5C 260.818,171.665 257.152,171.499 253.5,171C 250.778,169.728 249.444,167.561 249.5,164.5C 249.5,151.167 249.5,137.833 249.5,124.5C 252.5,124.5 255.5,124.5 258.5,124.5 Z"/></g>
<g><path style="opacity:1" fill="#39474e" d="M 19.5,125.5 C 31.8333,125.5 44.1667,125.5 56.5,125.5C 56.5,128.167 56.5,130.833 56.5,133.5C 51.8333,133.5 47.1667,133.5 42.5,133.5C 42.5,146.167 42.5,158.833 42.5,171.5C 39.1667,171.5 35.8333,171.5 32.5,171.5C 32.5,158.833 32.5,146.167 32.5,133.5C 28.1667,133.5 23.8333,133.5 19.5,133.5C 19.5,130.833 19.5,128.167 19.5,125.5 Z"/></g>
<g><path style="opacity:1" fill="#34434a" d="M 62.5,137.5 C 68.1764,137.334 73.8431,137.501 79.5,138C 82.1024,138.883 84.2691,140.383 86,142.5C 87.4475,152.061 87.9475,161.727 87.5,171.5C 84.8333,171.5 82.1667,171.5 79.5,171.5C 79.719,170.325 79.3857,169.325 78.5,168.5C 72.8717,171.387 66.8717,172.22 60.5,171C 55.8468,167.212 54.3468,162.378 56,156.5C 57.9384,153.894 60.4384,152.061 63.5,151C 68.4889,150.501 73.4889,150.334 78.5,150.5C 79.0352,147.762 78.0352,145.928 75.5,145C 69.8051,144.374 64.1385,144.541 58.5,145.5C 58.3379,143.473 58.5045,141.473 59,139.5C 60.3024,138.915 61.469,138.249 62.5,137.5 Z"/></g>
<g><path style="opacity:1" fill="#34434a" d="M 168.5,157.5 C 160.472,157.169 152.472,157.502 144.5,158.5C 144.624,159.107 144.957,159.44 145.5,159.5C 145.916,161.752 147.249,163.252 149.5,164C 155.084,164.806 160.584,164.639 166,163.5C 166.814,165.902 166.647,168.235 165.5,170.5C 158.135,171.924 150.802,171.758 143.5,170C 134.058,161.243 133.058,151.576 140.5,141C 149.341,136.016 157.841,136.516 166,142.5C 168.235,147.223 169.069,152.223 168.5,157.5 Z"/></g>
<g><path style="opacity:1" fill="#35434a" d="M 221.5,137.5 C 236.341,136.009 243.341,142.675 242.5,157.5C 234.5,157.5 226.5,157.5 218.5,157.5C 218.744,160.263 220.077,162.429 222.5,164C 228.537,164.697 234.537,164.53 240.5,163.5C 240.958,166.394 240.291,168.894 238.5,171C 232.167,171.667 225.833,171.667 219.5,171C 214.124,168.96 210.957,165.127 210,159.5C 207.342,148.473 211.175,141.139 221.5,137.5 Z"/></g>
<g><path style="opacity:1" fill="#334148" d="M 95.5,137.5 C 98.5,137.5 101.5,137.5 104.5,137.5C 104.334,145.507 104.5,153.507 105,161.5C 109.596,165.432 114.263,165.432 119,161.5C 119.5,153.507 119.666,145.507 119.5,137.5C 122.5,137.5 125.5,137.5 128.5,137.5C 128.5,148.833 128.5,160.167 128.5,171.5C 125.5,171.5 122.5,171.5 119.5,171.5C 119.649,170.448 119.483,169.448 119,168.5C 113.507,171.336 107.673,172.169 101.5,171C 99.6667,169.833 98.1667,168.333 97,166.5C 95.5796,156.914 95.0796,147.247 95.5,137.5 Z"/></g>
<g><path style="opacity:1" fill="#edeeef" d="M 147.5,144.5 C 150.85,144.335 154.183,144.502 157.5,145C 160.041,146.848 161.041,149.348 160.5,152.5C 155.167,152.5 149.833,152.5 144.5,152.5C 144.394,149.385 145.394,146.719 147.5,144.5 Z"/></g>
<g><path style="opacity:1" fill="#fbfbfb" d="M 233.5,148.5 C 233.5,149.5 233.5,150.5 233.5,151.5C 228.5,151.5 223.5,151.5 218.5,151.5C 218.081,148.675 219.081,146.509 221.5,145C 224.833,144.333 228.167,144.333 231.5,145C 232.823,145.816 233.489,146.983 233.5,148.5 Z"/></g>
<g><path style="opacity:1" fill="#929a9d" d="M 233.5,148.5 C 234.434,149.568 234.768,150.901 234.5,152.5C 228.974,152.821 223.64,152.488 218.5,151.5C 223.5,151.5 228.5,151.5 233.5,151.5C 233.5,150.5 233.5,149.5 233.5,148.5 Z"/></g>
<g><path style="opacity:1" fill="#f5f6f6" d="M 66.5,156.5 C 70.5,156.5 74.5,156.5 78.5,156.5C 79.2455,163.088 76.2455,166.088 69.5,165.5C 64.4956,165.662 62.6623,163.329 64,158.5C 64.9947,157.934 65.828,157.267 66.5,156.5 Z"/></g>
<g><path style="opacity:1" fill="#979fa2" d="M 168.5,157.5 C 160.833,158.167 153.167,158.833 145.5,159.5C 144.957,159.44 144.624,159.107 144.5,158.5C 152.472,157.502 160.472,157.169 168.5,157.5 Z"/></g>
</svg>
