<svg viewBox="0 0 575 575" class="roots-wrapper"><g transform="rotate(0 0 0)"><svg viewBoxSize="575" data-root-id="5539043371760" xmlns="http://www.w3.org/2000/svg" xmlns:xlink="http://www.w3.org/1999/xlink" id="Layer_1" dataName="Layer 1" viewBox="180.14736938476562 251.8717041015625 389.8636779785156 138.94094848632812" height="104.06866386955502" width="292.0333251953125" y="201.61" x="141.493" preserveAspectRatio="xMinYMin" zoom="1" editorType="buyer" data-layer-role="icon" style="position: absolute; height: 104.069px; width: 292.033px; top: 201.61px; left: 141.493px;"><linearGradient id="linear-gradient" x1="44.86" y1="319.38" x2="548.1" y2="321.68" gradientUnits="userSpaceOnUse" name="Layer %{number}" zoom="1" data-layer-id="3425829371760"><stop offset="0" stop-color="#e62020"></stop><stop offset="1" stop-color="#fbae17"></stop></linearGradient><path class="cls-1" d="M569.83,293.3a12.33,12.33,0,0,0-.87-3.09,10.92,10.92,0,0,0-4.51-5,10.65,10.65,0,0,0-1.33-.7l-.71-.34c-.44-.21-.87-.43-1.28-.65a23.22,23.22,0,0,1-2.31-1.41,21.13,21.13,0,0,1-3.91-3.45c-1.22-1.36-2.48-3-3.85-4.83a69.5,69.5,0,0,0-4.67-5.66,34.68,34.68,0,0,0-3-2.82,21.81,21.81,0,0,0-1.76-1.32l-.94-.63c-.31-.19-.62-.35-.93-.53a30.82,30.82,0,0,0-16.36-4.11,31.44,31.44,0,0,0-4,.43l-12.25-6.72a4.85,4.85,0,0,0-7.14,4.9l1.43,10.54a16.93,16.93,0,0,0,6.6-4,8.65,8.65,0,0,1-3,6.85,18.91,18.91,0,0,1-1.88,2.41,30.54,30.54,0,0,1-5.56,4.68l-.05.11c-2.34,5.12-4.86,10.47-8.5,14.87-8.57,10.36-22.16,13.91-35.08,12.23a85.37,85.37,0,0,1-21-5.8,168.92,168.92,0,0,1-20.18-10,223,223,0,0,0-20.94-11c-.92-.41-1.84-.81-2.78-1.2l-1.46-.59-1.47-.49-2.95-1c-1-.32-2-.54-3-.81a84.41,84.41,0,0,0-12-2.25,93,93,0,0,0-24.17.76,129.11,129.11,0,0,0-23,6.08c-14.87,5.33-28.74,12.58-42.41,19.88-6.83,3.66-13.62,7.36-20.47,10.89-3.43,1.74-6.87,3.49-10.35,5.11s-7,3.29-10.51,4.85c-7,3.08-14.19,5.9-21.67,6.92a31.38,31.38,0,0,1-11.15-.36,24.67,24.67,0,0,1-5.25-1.86,26.52,26.52,0,0,1-4.68-3.06,49.25,49.25,0,0,1-4.06-4,32.3,32.3,0,0,1-3.46-4.51,38.32,38.32,0,0,1-4.55-10.47,62.17,62.17,0,0,1-1.6-23,62.7,62.7,0,0,0,.81,23.16,39.58,39.58,0,0,0,4.3,10.9,32.47,32.47,0,0,0,3.43,4.8,51.41,51.41,0,0,0,4.07,4.29,28.45,28.45,0,0,0,4.9,3.45A26.75,26.75,0,0,0,204,328a33.47,33.47,0,0,0,11.91.81c7.94-.8,15.44-3.47,22.67-6.35,3.62-1.46,7.17-3,10.74-4.51s7.12-3.16,10.64-4.8c7-3.31,14-6.78,20.91-10.19,13.87-6.8,27.79-13.44,42.27-18.07a123.24,123.24,0,0,1,22-5,84.93,84.93,0,0,1,22.13.07A76.71,76.71,0,0,1,378,282.38c.87.28,1.77.5,2.62.82l2.53.93,1.27.47,1.21.54c.84.39,1.68.78,2.52,1.19a213.87,213.87,0,0,1,19.73,11.32,180,180,0,0,0,21,11.34,96.45,96.45,0,0,0,23.45,7.33,70.81,70.81,0,0,0,12.76.92c.53,0,1.23-.08,1.77-.13l.63-.07c-1.49,1.31-3,2.61-4.54,3.87a144.93,144.93,0,0,1-13.74,9.88,159.48,159.48,0,0,1-14.79,8.44c-3.42,1.74-6.91,3.36-10.43,4.89a234.56,234.56,0,0,1-28.9-11.8q-8.41-4.05-16.62-8.6l-8.28-4.61q-4.23-2.31-8.65-4.3a92.54,92.54,0,0,0-18.37-6.18,66.72,66.72,0,0,0-19.37-1.4,64.32,64.32,0,0,0-9.58,1.51l-2.35.61-2.3.7c-1.55.44-3,1-4.55,1.56-.49.18-1,.38-1.46.57l0-.05-.3.18a89.67,89.67,0,0,0-15.21,8,108.68,108.68,0,0,0-27.4,26A107.84,107.84,0,0,1,289,321.85c1-.6,2.05-1.17,3.09-1.73a146.74,146.74,0,0,0,16.85,21,160.37,160.37,0,0,0,20.68,18.15q3.36,2.46,6.83,4.72l-2.14.15a286.23,286.23,0,0,1-34.9-.1c-23.32-1.39-46.59-4.82-69.93-7.14,23.19,3.49,46.2,8.08,69.63,10.67a291.93,291.93,0,0,0,35.39,1.87q5.21-.06,10.42-.28a165.23,165.23,0,0,0,33.35,14.34,173.7,173.7,0,0,0,53.24,7.28,179.77,179.77,0,0,0,52.43-9,178.15,178.15,0,0,1-52.38,5.51,168.21,168.21,0,0,1-51-10.41,161.42,161.42,0,0,1-19.24-8.8c2.89-.27,5.78-.57,8.66-.92a251.79,251.79,0,0,0,56-13c.34.11.67.24,1,.36,12.22,4.16,25.12,7.12,38.51,7.37a82.76,82.76,0,0,0,20.12-2.05,71,71,0,0,0,19.18-7.45,72.47,72.47,0,0,0,8.61-5.75,88.3,88.3,0,0,0,7.64-6.69c2.34-2.27,4.63-4.58,6.87-7,1.13-1.21,2.24-2.45,3.35-3.75,1-1.14,1.92-2.31,2.88-3.64l.11,0a25.08,25.08,0,0,1,6.05-.67,29.45,29.45,0,0,1,5.87.81l6.5,1.59c.56.14,1.16.26,1.74.38a13.62,13.62,0,0,0,2.35.27,9.26,9.26,0,0,0,1.53-.1c.27,0,.56-.1.84-.17l.44-.13a4.59,4.59,0,0,0,.59-.24,7.3,7.3,0,0,0,1.18-.67c.29-.23.57-.47.84-.73a7.27,7.27,0,0,0,.62-.7,7.46,7.46,0,0,0,.49-.67,16.55,16.55,0,0,0,1.89-4.31c.39-1.28.66-2.5.91-3.67l.34-1.7.15-.73.17-.72.75-3.36c.48-2.24.92-4.47,1.34-6.7l.61-3.35c.18-1.17.4-2,.55-3.86A14.28,14.28,0,0,0,569.83,293.3Zm-201,66.81q-8.44,1.45-17,2.44A145.7,145.7,0,0,1,336.06,351,148.11,148.11,0,0,1,318,332.89,133.43,133.43,0,0,1,304.9,314.5l1-.34c1.48-.45,2.94-1,4.45-1.3l2.25-.57,2.26-.47a60.85,60.85,0,0,1,9.12-1A63,63,0,0,1,342.12,313a86.84,86.84,0,0,1,17.09,6.69q4.13,2.08,8.08,4.5l8,5q8.11,5,16.51,9.57c6.67,3.61,13.49,7,20.5,10A251.75,251.75,0,0,1,368.87,360.11Zm187.71-40.87-.17,0h0a.88.88,0,0,1,.21-.06h0l0,0A.28.28,0,0,1,556.58,319.24Zm-6.51-21.33a15.79,15.79,0,0,0,3.5,2.23,30.61,30.61,0,0,0,4.72,1.67q-.35,3.21-.77,6.41l-.47,3.23-.14.92-.11.93-.18,1.61c-.12,1-.25,2-.43,2.89a11.88,11.88,0,0,1-.37,1.44l-.22,0L554,319l-6.66-.91a33.53,33.53,0,0,0-7.46-.2,25.49,25.49,0,0,0-3.78.63c-1.3.32-2.25.65-3.34,1a35,35,0,0,1-6.16,1.52,12.89,12.89,0,0,1-5.65-.22,17,17,0,0,1-9.79-6.8,10.94,10.94,0,0,1-2-5.8,9.93,9.93,0,0,1,2-6.06,10,10,0,0,0-3.25,6,12.39,12.39,0,0,0,1.15,7,19.1,19.1,0,0,0,4.3,5.8,21.18,21.18,0,0,0,4,2.89c-1.9,2.19-3.9,4.37-5.94,6.49s-4.13,4.19-6.3,6.05a60.6,60.6,0,0,1-6.87,5.08c-9.61,6.14-21.09,9.19-32.92,9.52a106.81,106.81,0,0,1-25.55-2.58q7.84-3.51,15.36-7.81a155.24,155.24,0,0,0,15.33-9.91A150.26,150.26,0,0,0,484.64,319a153.53,153.53,0,0,0,12.65-13.46l-.05,0a43.9,43.9,0,0,0,6.64-9.18q3.48-6.09,6.41-12.46c.49-1.06,1-2.13,1.43-3.2l.64-1.47a6.06,6.06,0,0,1,.39-.76,8.75,8.75,0,0,1,.49-.75c.23-.27.46-.54.68-.82a12.1,12.1,0,0,1,1.56-1.47,14.09,14.09,0,0,1,3.89-2.19,17.18,17.18,0,0,1,4.6-.94,16.9,16.9,0,0,1,4.8.36,16.3,16.3,0,0,1,4.56,1.65l.54.27.47.28c.31.2.62.42.94.66a20.06,20.06,0,0,1,1.92,1.67,59,59,0,0,1,4.07,4.49c1.43,1.69,2.93,3.53,4.79,5.41a33.11,33.11,0,0,0,6.4,5.06A34,34,0,0,0,556,294c.59.27,1.18.52,1.76.76l.83.33a1.26,1.26,0,0,0,.16.05c.09,0,.07,0,0,0a.54.54,0,0,1-.06-.18s0,0,.08.12a1.33,1.33,0,0,1,.05.26,27.15,27.15,0,0,1-4.48.94,12.7,12.7,0,0,1-3.42-.1,7.92,7.92,0,0,1-3.3-1.36A8.89,8.89,0,0,0,550.07,297.91Z" name="Layer %{number}" zoom="1" data-layer-id="2631155571760" style="fill: rgb(17, 17, 44); fill-opacity: 1;"></path><path class="cls-2" d="M369.9,373.85c1.28,0,2.54.07,3.77.19q-6.35-2.75-12.43-6l-16.36,1.09c4.53,2.58,9.19,4.92,13.93,7A28.61,28.61,0,0,1,369.9,373.85Z" name="Layer %{number}" zoom="1" data-layer-id="7310475371760" style="opacity: 0.82; fill-opacity: 0.36;"></path><path class="cls-2" d="M396.9,354.25a34.4,34.4,0,0,1,16.35,4q6.38-1.89,12.64-4.17l-13.58-5.33q-8.35,3-17,5.43l-.08,0,.19.07C395.92,354.27,396.41,354.25,396.9,354.25Z" name="Layer %{number}" zoom="1" data-layer-id="9194165571760" style="opacity: 0.82; fill-opacity: 0.36;"></path><path class="cls-2" d="M463.31,305.32a34.47,34.47,0,0,1-13.92,10.44c1,.21,1.95.39,2.94.56a70.81,70.81,0,0,0,12.76.92c.53,0,1.23-.08,1.77-.13l.63-.07,18.84-21.31C480.05,301.68,471.83,304.72,463.31,305.32Z" name="Layer %{number}" zoom="1" data-layer-id="4018880971760" style="opacity: 0.82; fill-opacity: 0.36;"></path><path class="cls-2" d="M490.35,291.19Z" name="Layer %{number}" zoom="1" data-layer-id="1084095371760" style="opacity: 0.82; fill-opacity: 0.36;"></path><path class="cls-2" d="M517.37,323.88c-.54.62-1.26,1.43-2,2.27l-1.82,2-1.29,1.39c3.87,3,9.58,5.06,15.07,3.9.17-.19.35-.36.52-.55,1.13-1.21,2.24-2.45,3.35-3.75,1-1.14,1.92-2.31,2.88-3.64l.11,0,.09,0A41.25,41.25,0,0,1,517.37,323.88Z" name="Layer %{number}" zoom="1" data-layer-id="1141254271760" style="opacity: 0.82; fill-opacity: 0.36;"></path><path class="cls-2" d="M537.9,324.87l-.08,0h.07Z" name="Layer %{number}" zoom="1" data-layer-id="4154678471760" style="opacity: 0.82; fill-opacity: 0.36;"></path></svg></g><g transform="rotate(0 0 0)"><svg viewBoxSize="575" data-root-id="5781835671760" xmlns="http://www.w3.org/2000/svg" y="399.6100082397461" viewBox="0 0 0 0" x="287.5163282470703" height="0" width="0" fontUrl="http://fonts.gstatic.com/s/ubuntu/v20/4iCs6KVjbNBYlgo6eAT3v02QFg.ttf" zoom="1" editorType="buyer" data-layer-role="slogan" style="position: absolute; top: 399.61px; width: 0px; height: 0px; left: 287.516px;"><g data-horizontal-grow="center" zoom="1" root="[object Object]" style="fill: rgb(17, 17, 44); fill-opacity: 0.5;"><path d="" transform="translate(0, 0)"></path></g></svg></g><g transform="rotate(0 0 0)"><svg viewBoxSize="575" data-root-id="6728890471760" xmlns="http://www.w3.org/2000/svg" y="342.6100082397461" viewBox="-11.75 12.130000114440918 196.50999450683594 30.779998779296875" x="189.25502855224607" height="30.779998779296875" width="196.50999450683594" fontUrl="http://fonts.gstatic.com/s/fasterone/v19/H4ciBXCHmdfClFb-vWhfyLuShq63czE.ttf" zoom="1" editorType="buyer" data-layer-role="brandName" style="position: absolute; top: 342.61px; width: 196.51px; height: 30.78px; left: 189.255px;"><g data-horizontal-grow="center" zoom="1" root="[object Object]" style="fill: rgb(17, 17, 44); fill-opacity: 1;"><path d="M18.52 42.21L9.59 42.21L14.76 12.83L23.69 12.83L18.52 42.21ZM13.30 12.83L12.93 14.95L-6.96 12.83L13.30 12.83ZM12.50 17.34L12.17 19.46L-7.75 17.34L12.50 17.34ZM11.75 21.86L11.37 23.97L-8.55 21.86L11.75 21.86ZM10.95 26.37L10.57 28.48L-9.35 26.37L10.95 26.37ZM10.15 30.88L9.78 32.99L-10.15 30.88L10.15 30.88ZM9.35 35.39L8.98 37.51L-10.95 35.39L9.35 35.39ZM8.55 39.95L8.18 42.07L-11.75 39.95L8.55 39.95ZM45.50 42.21L36.57 42.21L41.74 12.83L55.84 12.83Q58.89 12.83 60.63 13.79Q62.37 14.76 63.10 16.45Q63.83 18.14 63.83 20.26L63.83 20.26Q63.83 21.53 63.57 23.41Q63.31 25.29 62.60 27.31Q61.90 29.33 60.63 31.11Q59.36 32.90 57.39 34.00Q55.41 35.11 52.55 35.11L52.55 35.11L46.72 35.11L45.50 42.21ZM40.28 12.83L39.90 14.95L20.02 12.83L40.28 12.83ZM39.48 17.34L39.10 19.46L19.22 17.34L39.48 17.34ZM49.30 20.35L48.03 27.59L50.10 27.59Q51.46 27.59 52.41 27.28Q53.34 26.98 53.58 25.62L53.58 25.62Q53.91 23.88 54.03 23.10Q54.14 22.33 54.17 22.09Q54.19 21.86 54.19 21.81L54.19 21.81Q54.19 20.82 53.39 20.59Q52.59 20.35 51.37 20.35L51.37 20.35L49.30 20.35ZM38.68 21.86L38.30 23.97L18.42 21.86L38.68 21.86ZM37.88 26.37L37.51 28.48L17.63 26.37L37.88 26.37ZM37.13 30.88L36.75 32.99L16.83 30.88L37.13 30.88ZM36.33 35.39L35.95 37.51L16.03 35.39L36.33 35.39ZM35.53 39.95L35.16 42.07L15.23 39.95L35.53 39.95ZM87.19 42.91L87.19 42.91Q81.08 42.91 78.61 40.51Q76.14 38.12 76.14 33.42L76.14 33.42Q76.14 32.10 76.30 30.64Q76.47 29.19 76.75 27.54L76.75 27.54Q77.64 22.42 79.38 19.01Q81.12 15.60 84.27 13.87Q87.42 12.13 92.59 12.13L92.59 12.13Q98.70 12.13 101.17 14.50Q103.63 16.87 103.63 21.62L103.63 21.62Q103.63 23.55 103.33 26.04Q103.02 28.53 102.30 31.11Q101.57 33.70 100.34 36.00Q99.12 38.31 97.29 39.95L97.29 39.95Q95.41 41.60 92.92 42.25Q90.43 42.91 87.19 42.91ZM80.98 14.38L80.98 14.38L66.60 12.83L83.10 12.83Q82.53 13.16 82.02 13.54Q81.50 13.91 80.98 14.38ZM77.69 19.22L77.69 19.22L60.11 17.34L78.63 17.34Q78.40 17.81 78.16 18.26Q77.93 18.71 77.69 19.22ZM87.19 22.65L85.02 34.87L88.74 34.87Q90.29 34.87 91.30 34.50Q92.31 34.12 92.64 32.38L92.64 32.38L94.80 20.16L91.04 20.16Q89.49 20.16 88.50 20.54Q87.51 20.92 87.19 22.65L87.19 22.65ZM76.70 21.86L76.14 23.78L57.90 21.86L76.70 21.86ZM75.25 28.34L75.25 28.34L56.78 26.37L75.58 26.37L75.44 27.31Q75.39 27.59 75.34 27.85Q75.29 28.11 75.25 28.34ZM74.78 32.85L74.78 32.85L56.26 30.88L74.92 30.88Q74.78 31.91 74.78 32.85ZM75.15 37.37L75.15 37.37L56.87 35.39L74.82 35.39Q74.92 35.91 74.99 36.40Q75.06 36.90 75.15 37.37ZM77.64 41.69L77.64 41.69L61.38 39.95L76.23 39.95Q76.84 41.03 77.64 41.69ZM128.59 42.91L128.59 42.91Q125.82 42.91 123.16 42.61Q120.51 42.30 118.02 41.69L118.02 41.69L120.65 33.93Q122.44 34.40 124.50 34.71Q126.57 35.02 128.40 35.02L128.40 35.02Q129.91 35.02 131.04 34.94Q132.16 34.87 133.20 34.73L133.20 34.73L133.57 32.38L129.67 32.01Q125.07 31.54 123.28 29.92Q121.50 28.29 121.50 25.47L121.50 25.47Q121.50 24.21 121.78 22.65L121.78 22.65Q122.53 18.66 123.96 16.36Q125.40 14.05 128.08 13.09Q130.75 12.13 135.17 12.13L135.17 12.13Q137.76 12.13 140.25 12.41Q142.74 12.69 145.04 13.30L145.04 13.30L142.60 20.82Q140.77 20.49 139.12 20.30Q137.48 20.12 135.45 20.12L135.45 20.12Q134.37 20.12 133.62 20.16Q132.87 20.21 131.79 20.35L131.79 20.35L131.41 22.65L134.56 22.98Q137.95 23.31 139.87 24.28Q141.80 25.24 142.60 26.67Q143.40 28.11 143.40 29.99L143.40 29.99Q143.40 30.55 143.33 31.14Q143.26 31.73 143.16 32.38L143.16 32.38Q142.50 36.19 141.05 38.35Q139.59 40.51 137.62 41.48Q135.64 42.44 133.32 42.68Q130.99 42.91 128.59 42.91ZM123.19 14.76L123.19 14.76L105.05 12.83L125.26 12.83Q124.64 13.21 124.15 13.70Q123.66 14.19 123.19 14.76ZM121.73 17.34L121.03 19.41L101.52 17.34L121.73 17.34ZM120.13 23.97L120.13 23.97L100.20 21.86L120.46 21.86Q120.41 22.00 120.39 22.14Q120.37 22.28 120.37 22.42L120.37 22.42Q120.32 22.75 120.25 23.12Q120.18 23.50 120.13 23.97ZM120.51 28.48L120.51 28.48L100.63 26.37L120.13 26.37Q120.18 26.98 120.25 27.47Q120.32 27.97 120.51 28.48ZM126.71 32.99L126.71 32.99L101.85 30.88L122.11 30.88Q123.66 32.38 126.71 32.99ZM118.63 35.39L117.92 37.46L101.05 35.39L118.63 35.39ZM117.12 39.95L116.42 42.02L100.25 39.95L117.12 39.95ZM173.10 42.21L164.17 42.21L167.98 20.35L161.54 20.35L162.90 12.83L184.76 12.83L183.39 20.35L176.91 20.35L173.10 42.21ZM161.40 12.83L161.02 14.95L141.14 12.83L161.40 12.83ZM160.60 17.34L160.27 19.46L140.34 17.34L160.60 17.34ZM166.29 21.86L165.91 23.97L145.98 21.86L166.29 21.86ZM165.49 26.37L165.11 28.48L145.18 26.37L165.49 26.37ZM164.69 30.88L164.31 32.99L144.38 30.88L164.69 30.88ZM163.89 35.39L163.51 37.51L143.58 35.39L163.89 35.39ZM163.09 39.95L162.71 42.07L142.79 39.95L163.09 39.95Z" transform="translate(0, 0)"></path></g></svg></g></svg>