<svg width="120" height="100" viewBox="0 0 120 100" fill="none" xmlns="http://www.w3.org/2000/svg">
<rect width="120" height="100" rx="10" fill="#355EEE"/>
<path d="M11.8697 52V30.1818H18.8157V52H11.8697ZM15.3498 27.6392C14.3744 27.6392 13.5363 27.3172 12.8356 26.6733C12.1348 26.0199 11.7844 25.2339 11.7844 24.3153C11.7844 23.4062 12.1348 22.6297 12.8356 21.9858C13.5363 21.3324 14.3744 21.0057 15.3498 21.0057C16.3346 21.0057 17.1727 21.3324 17.864 21.9858C18.5647 22.6297 18.9151 23.4062 18.9151 24.3153C18.9151 25.2339 18.5647 26.0199 17.864 26.6733C17.1727 27.3172 16.3346 27.6392 15.3498 27.6392ZM23.2369 52V22.9091H35.2539C37.4319 22.9091 39.3117 23.3352 40.8931 24.1875C42.484 25.0303 43.7103 26.2093 44.5721 27.7244C45.4338 29.2301 45.8647 30.982 45.8647 32.9801C45.8647 34.9877 45.4244 36.7443 44.5437 38.25C43.6725 39.7462 42.4272 40.9062 40.8079 41.7301C39.1886 42.554 37.2662 42.9659 35.0408 42.9659H27.6261V37.4261H33.734C34.7946 37.4261 35.68 37.2415 36.3903 36.8722C37.11 36.5028 37.6545 35.9867 38.0238 35.3239C38.3931 34.6515 38.5778 33.8703 38.5778 32.9801C38.5778 32.0805 38.3931 31.304 38.0238 30.6506C37.6545 29.9877 37.11 29.4763 36.3903 29.1165C35.6706 28.7566 34.7852 28.5767 33.734 28.5767H30.2681V52H23.2369ZM59.0856 52.4119C56.7939 52.4119 54.8242 51.9432 53.1765 51.0057C51.5382 50.0587 50.274 48.7424 49.3839 47.0568C48.5032 45.3617 48.0629 43.3968 48.0629 41.1619C48.0629 38.9176 48.5032 36.9527 49.3839 35.267C50.274 33.572 51.5382 32.2557 53.1765 31.3182C54.8242 30.3712 56.7939 29.8977 59.0856 29.8977C61.3772 29.8977 63.3422 30.3712 64.9805 31.3182C66.6282 32.2557 67.8924 33.572 68.7731 35.267C69.6632 36.9527 70.1083 38.9176 70.1083 41.1619C70.1083 43.3968 69.6632 45.3617 68.7731 47.0568C67.8924 48.7424 66.6282 50.0587 64.9805 51.0057C63.3422 51.9432 61.3772 52.4119 59.0856 52.4119ZM59.1282 47.1705C59.9615 47.1705 60.667 46.9148 61.2447 46.4034C61.8223 45.892 62.2627 45.1818 62.5657 44.2727C62.8782 43.3636 63.0344 42.3125 63.0344 41.1193C63.0344 39.9072 62.8782 38.8466 62.5657 37.9375C62.2627 37.0284 61.8223 36.3182 61.2447 35.8068C60.667 35.2955 59.9615 35.0398 59.1282 35.0398C58.2665 35.0398 57.5373 35.2955 56.9407 35.8068C56.3536 36.3182 55.9038 37.0284 55.5913 37.9375C55.2882 38.8466 55.1367 39.9072 55.1367 41.1193C55.1367 42.3125 55.2882 43.3636 55.5913 44.2727C55.9038 45.1818 56.3536 45.892 56.9407 46.4034C57.5373 46.9148 58.2665 47.1705 59.1282 47.1705ZM92.7148 36.8438L86.337 37.0142C86.2707 36.5597 86.0908 36.1572 85.7972 35.8068C85.5037 35.447 85.1201 35.1676 84.6467 34.9688C84.1826 34.7604 83.6429 34.6562 83.0273 34.6562C82.2224 34.6562 81.5359 34.8172 80.9677 35.1392C80.409 35.4612 80.1344 35.8968 80.1438 36.446C80.1344 36.8722 80.3048 37.2415 80.6552 37.554C81.015 37.8665 81.6542 38.1174 82.5728 38.3068L86.7773 39.1023C88.9554 39.5189 90.5747 40.2102 91.6353 41.1761C92.7054 42.142 93.2451 43.4205 93.2546 45.0114C93.2451 46.5076 92.8001 47.8097 91.9194 48.9176C91.0482 50.0256 89.855 50.8873 88.3398 51.5028C86.8247 52.1089 85.0917 52.4119 83.141 52.4119C80.0254 52.4119 77.5681 51.7727 75.7688 50.4943C73.979 49.2064 72.9563 47.483 72.7006 45.3239L79.5614 45.1534C79.7129 45.9489 80.1059 46.5549 80.7404 46.9716C81.3749 47.3883 82.1845 47.5966 83.1694 47.5966C84.0595 47.5966 84.784 47.4309 85.3427 47.0994C85.9014 46.768 86.1855 46.3277 86.195 45.7784C86.1855 45.286 85.9677 44.893 85.5415 44.5994C85.1154 44.2964 84.4478 44.0597 83.5387 43.8892L79.7319 43.1648C77.5444 42.767 75.9156 42.0331 74.8455 40.9631C73.7754 39.8835 73.2451 38.5104 73.2546 36.8438C73.2451 35.3854 73.6334 34.1402 74.4194 33.108C75.2054 32.0663 76.3228 31.2708 77.7717 30.7216C79.2205 30.1723 80.9298 29.8977 82.8995 29.8977C85.854 29.8977 88.1836 30.518 89.8881 31.7585C91.5927 32.9896 92.5349 34.6847 92.7148 36.8438ZM108.99 30.1818V35.2955H95.2255V30.1818H108.99ZM98.109 24.9545H105.055V45.1392C105.055 45.5653 105.121 45.911 105.254 46.1761C105.396 46.4318 105.6 46.6165 105.865 46.7301C106.13 46.8343 106.447 46.8864 106.816 46.8864C107.082 46.8864 107.361 46.8627 107.654 46.8153C107.958 46.7585 108.185 46.7112 108.336 46.6733L109.387 51.6875C109.056 51.7822 108.587 51.9006 107.981 52.0426C107.385 52.1847 106.67 52.2746 105.836 52.3125C104.208 52.3883 102.811 52.1989 101.646 51.7443C100.491 51.2803 99.6052 50.5606 98.9897 49.5852C98.3836 48.6098 98.0901 47.3835 98.109 45.9062V24.9545ZM28.9673 72.2884C27.3565 72.2884 25.9744 71.9569 24.821 71.294C23.6742 70.6312 22.7926 69.7098 22.1761 68.5298C21.5597 67.3433 21.2514 65.9711 21.2514 64.4134C21.2514 62.849 21.5597 61.4768 22.1761 60.2969C22.7992 59.1103 23.6842 58.1856 24.831 57.5227C25.9844 56.8598 27.3598 56.5284 28.9574 56.5284C30.3693 56.5284 31.599 56.7836 32.6463 57.294C33.7003 57.8045 34.5223 58.527 35.1122 59.4616C35.7088 60.3897 36.0237 61.4801 36.0568 62.733H31.5128C31.42 61.9508 31.1548 61.3376 30.7173 60.8935C30.2865 60.4493 29.723 60.2273 29.027 60.2273C28.4635 60.2273 27.9697 60.3864 27.5455 60.7045C27.1212 61.0161 26.7898 61.4801 26.5511 62.0966C26.3191 62.7064 26.2031 63.4621 26.2031 64.3636C26.2031 65.2652 26.3191 66.0275 26.5511 66.6506C26.7898 67.267 27.1212 67.7344 27.5455 68.0526C27.9697 68.3641 28.4635 68.5199 29.027 68.5199C29.4777 68.5199 29.8755 68.4238 30.2202 68.2315C30.5715 68.0393 30.8598 67.7576 31.0852 67.3864C31.3106 67.0085 31.4531 66.5511 31.5128 66.0142H36.0568C36.0104 67.2737 35.6955 68.3741 35.1122 69.3153C34.5355 70.2566 33.7235 70.9891 32.6761 71.5128C31.6354 72.0298 30.3991 72.2884 28.9673 72.2884ZM42.8505 72.2585C41.8761 72.2585 41.011 72.0961 40.2553 71.7713C39.5063 71.4399 38.913 70.9427 38.4755 70.2798C38.0446 69.6103 37.8292 68.7718 37.8292 67.7642C37.8292 66.9157 37.9783 66.1998 38.2766 65.6165C38.5749 65.0331 38.9859 64.5592 39.5096 64.1946C40.0333 63.83 40.6365 63.5549 41.3192 63.3693C42.002 63.1771 42.7312 63.0478 43.5067 62.9815C44.3751 62.902 45.0745 62.8191 45.6048 62.733C46.1351 62.6402 46.5195 62.5109 46.7582 62.3452C47.0034 62.1728 47.1261 61.9309 47.1261 61.6193V61.5696C47.1261 61.0592 46.9504 60.6648 46.5991 60.3864C46.2478 60.108 45.7738 59.9688 45.1772 59.9688C44.5342 59.9688 44.0172 60.108 43.6261 60.3864C43.235 60.6648 42.9864 61.0492 42.8803 61.5398L38.396 61.3807C38.5285 60.4527 38.8699 59.6241 39.4201 58.8949C39.9769 58.1591 40.7392 57.5824 41.707 57.1648C42.6815 56.7405 43.8514 56.5284 45.217 56.5284C46.1914 56.5284 47.0896 56.6444 47.9116 56.8764C48.7335 57.1018 49.4495 57.4332 50.0593 57.8707C50.6692 58.3016 51.1398 58.8319 51.4712 59.4616C51.8093 60.0914 51.9783 60.8106 51.9783 61.6193V72H47.4045V69.8722H47.2852C47.0134 70.3892 46.6654 70.8267 46.2411 71.1847C45.8235 71.5426 45.3297 71.8111 44.7596 71.9901C44.1961 72.169 43.5598 72.2585 42.8505 72.2585ZM44.3519 69.0767C44.8756 69.0767 45.3462 68.9706 45.7638 68.7585C46.1881 68.5464 46.5262 68.2547 46.7781 67.8835C47.0299 67.5057 47.1559 67.0682 47.1559 66.571V65.1193C47.0167 65.1922 46.8477 65.2585 46.6488 65.3182C46.4566 65.3778 46.2444 65.4342 46.0124 65.4872C45.7804 65.5402 45.5418 65.5866 45.2965 65.6264C45.0513 65.6662 44.8159 65.7027 44.5906 65.7358C44.1332 65.8087 43.7421 65.9214 43.4173 66.0739C43.0991 66.2263 42.8538 66.4252 42.6815 66.6705C42.5157 66.9091 42.4329 67.1941 42.4329 67.5256C42.4329 68.0294 42.6119 68.4138 42.9698 68.679C43.3344 68.9441 43.7951 69.0767 44.3519 69.0767ZM54.9513 72V56.7273H59.6744V59.5114H59.8335C60.1119 58.5038 60.5659 57.7547 61.1957 57.2642C61.8254 56.767 62.5579 56.5185 63.3931 56.5185C63.6185 56.5185 63.8505 56.535 64.0891 56.5682C64.3278 56.5947 64.5498 56.6378 64.7553 56.6974V60.9233C64.5233 60.8437 64.2184 60.7808 63.8406 60.7344C63.4693 60.688 63.1379 60.6648 62.8462 60.6648C62.2695 60.6648 61.7492 60.794 61.2852 61.0526C60.8278 61.3045 60.4665 61.6591 60.2013 62.1165C59.9428 62.5672 59.8136 63.0975 59.8136 63.7074V72H54.9513ZM73.0629 78.0455C71.6112 78.0455 70.3683 77.8433 69.3342 77.4389C68.3001 77.0346 67.488 76.4811 66.8981 75.7784C66.3081 75.0758 65.9535 74.2803 65.8342 73.392L70.4379 73.1335C70.524 73.4451 70.6831 73.7169 70.9151 73.9489C71.1538 74.1809 71.462 74.3598 71.8398 74.4858C72.2243 74.6117 72.6751 74.6747 73.1921 74.6747C74.0075 74.6747 74.6803 74.4759 75.2106 74.0781C75.7475 73.687 76.016 73.0009 76.016 72.0199V69.3352H75.8469C75.6547 69.8059 75.363 70.2268 74.9719 70.598C74.5808 70.9692 74.0936 71.2609 73.5103 71.473C72.9336 71.6851 72.2707 71.7912 71.5217 71.7912C70.408 71.7912 69.3872 71.5327 68.4592 71.0156C67.5378 70.492 66.7987 69.6832 66.2418 68.5895C65.6916 67.4891 65.4165 66.0739 65.4165 64.3438C65.4165 62.5606 65.7016 61.0923 66.2717 59.9389C66.8417 58.7789 67.5875 57.9205 68.5089 57.3636C69.4369 56.8068 70.4345 56.5284 71.5018 56.5284C72.3039 56.5284 72.9899 56.6676 73.56 56.946C74.1367 57.2178 74.6107 57.5691 74.9819 58C75.3531 58.4309 75.6348 58.8783 75.8271 59.3423H75.9663V56.7273H80.8086V72.0597C80.8086 73.3523 80.4838 74.4427 79.8342 75.331C79.1845 76.2192 78.2764 76.892 77.1097 77.3494C75.9431 77.8134 74.5941 78.0455 73.0629 78.0455ZM73.212 68.2514C73.802 68.2514 74.3058 68.0956 74.7234 67.7841C75.141 67.4725 75.4625 67.0251 75.6879 66.4418C75.9132 65.8584 76.0259 65.1591 76.0259 64.3438C76.0259 63.5152 75.9132 62.8026 75.6879 62.206C75.4691 61.6027 75.1476 61.1387 74.7234 60.8139C74.3058 60.4891 73.802 60.3267 73.212 60.3267C72.6088 60.3267 72.0984 60.4924 71.6808 60.8239C71.2631 61.1553 70.945 61.6226 70.7262 62.2259C70.5141 62.8224 70.408 63.5284 70.408 64.3438C70.408 65.1591 70.5174 65.8584 70.7362 66.4418C70.9549 67.0251 71.2698 67.4725 71.6808 67.7841C72.0984 68.0956 72.6088 68.2514 73.212 68.2514ZM91.0376 72.2884C89.4335 72.2884 88.0547 71.9602 86.9013 71.304C85.7545 70.6411 84.8696 69.7197 84.2464 68.5398C83.63 67.3532 83.3217 65.9777 83.3217 64.4134C83.3217 62.8423 83.63 61.4669 84.2464 60.2869C84.8696 59.1004 85.7545 58.179 86.9013 57.5227C88.0547 56.8598 89.4335 56.5284 91.0376 56.5284C92.6418 56.5284 94.0173 56.8598 95.1641 57.5227C96.3175 58.179 97.2024 59.1004 97.8189 60.2869C98.442 61.4669 98.7536 62.8423 98.7536 64.4134C98.7536 65.9777 98.442 67.3532 97.8189 68.5398C97.2024 69.7197 96.3175 70.6411 95.1641 71.304C94.0173 71.9602 92.6418 72.2884 91.0376 72.2884ZM91.0675 68.6193C91.6508 68.6193 92.1446 68.4403 92.549 68.0824C92.9534 67.7244 93.2616 67.2273 93.4737 66.5909C93.6925 65.9545 93.8018 65.2187 93.8018 64.3835C93.8018 63.535 93.6925 62.7926 93.4737 62.1562C93.2616 61.5199 92.9534 61.0227 92.549 60.6648C92.1446 60.3068 91.6508 60.1278 91.0675 60.1278C90.4643 60.1278 89.9538 60.3068 89.5362 60.6648C89.1252 61.0227 88.8104 61.5199 88.5916 62.1562C88.3795 62.7926 88.2734 63.535 88.2734 64.3835C88.2734 65.2187 88.3795 65.9545 88.5916 66.5909C88.8104 67.2273 89.1252 67.7244 89.5362 68.0824C89.9538 68.4403 90.4643 68.6193 91.0675 68.6193Z" fill="white"/>
</svg>
