<?xml version="1.0" encoding="UTF-8"?>
<!DOCTYPE svg PUBLIC "-//W3C//DTD SVG 1.1//EN" "http://www.w3.org/Graphics/SVG/1.1/DTD/svg11.dtd">
<svg xmlns="http://www.w3.org/2000/svg" version="1.1" width="341px" height="340px" style="shape-rendering:geometricPrecision; text-rendering:geometricPrecision; image-rendering:optimizeQuality; fill-rule:evenodd; clip-rule:evenodd" xmlns:xlink="http://www.w3.org/1999/xlink">
<g><path style="opacity:0.912" fill="#183770" d="M 20.5,70.5 C 33.2691,68.4452 39.1024,73.7786 38,86.5C 35.0341,94.055 29.5341,96.8883 21.5,95C 14.2624,91.3454 11.7624,85.5121 14,77.5C 15.6941,74.6424 17.8607,72.309 20.5,70.5 Z"/></g>
<g><path style="opacity:0.979" fill="#183770" d="M 45.5,79.5 C 66.2205,79.0467 86.8872,79.5467 107.5,81C 128.182,88.1799 136.682,102.68 133,124.5C 128.544,139.288 118.71,148.122 103.5,151C 91.8381,151.5 80.1714,151.667 68.5,151.5C 68.5,163.167 68.5,174.833 68.5,186.5C 60.8333,186.5 53.1667,186.5 45.5,186.5C 45.5,150.833 45.5,115.167 45.5,79.5 Z M 68.5,100.5 C 79.298,99.9749 89.9646,100.808 100.5,103C 109.486,108.296 111.319,115.463 106,124.5C 101.501,128.112 96.3341,129.945 90.5,130C 83.1742,130.5 75.8409,130.666 68.5,130.5C 68.5,120.5 68.5,110.5 68.5,100.5 Z"/></g>
<g><path style="opacity:0.948" fill="#183770" d="M 291.5,83.5 C 298.833,83.5 306.167,83.5 313.5,83.5C 313.5,91.1667 313.5,98.8333 313.5,106.5C 319.5,106.5 325.5,106.5 331.5,106.5C 331.5,112.833 331.5,119.167 331.5,125.5C 325.5,125.5 319.5,125.5 313.5,125.5C 313.333,137.838 313.5,150.171 314,162.5C 317.268,168.816 322.101,170.15 328.5,166.5C 331.173,171.017 333.173,175.851 334.5,181C 329.463,186.414 323.13,189.247 315.5,189.5C 304.897,189.05 297.397,184.05 293,174.5C 291.545,158.237 291.045,141.904 291.5,125.5C 287.5,125.5 283.5,125.5 279.5,125.5C 279.662,123.473 279.495,121.473 279,119.5C 276.667,123.5 274.333,127.5 272,131.5C 263.35,125.629 253.85,123.463 243.5,125C 239.595,127.475 239.595,130.142 243.5,133C 254.227,135.597 264.56,139.264 274.5,144C 282.906,150.55 285.739,159.05 283,169.5C 279.139,180.022 271.639,186.189 260.5,188C 243.107,190.825 227.441,186.992 213.5,176.5C 216.437,170.742 219.937,165.409 224,160.5C 234.217,167.514 245.384,170.014 257.5,168C 261.5,165 261.5,162 257.5,159C 248.845,156.336 240.178,153.669 231.5,151C 219.694,145.553 215.194,136.387 218,123.5C 221.749,113.421 228.915,107.255 239.5,105C 253.63,102.66 266.796,105.16 279,112.5C 279.495,110.527 279.662,108.527 279.5,106.5C 283.5,106.5 287.5,106.5 291.5,106.5C 291.5,98.8333 291.5,91.1667 291.5,83.5 Z"/></g>
<g><path style="opacity:0.945" fill="#183770" d="M 172.5,103.5 C 204.134,106.625 218.968,123.958 217,155.5C 210.675,176.813 196.342,188.146 174,189.5C 147.12,187.451 132.287,173.118 129.5,146.5C 132.191,120.476 146.524,106.142 172.5,103.5 Z M 168.5,124.5 C 184.119,123.791 193.119,131.125 195.5,146.5C 193.113,162.06 184.113,169.226 168.5,168C 153.488,161.647 148.988,150.814 155,135.5C 158.336,130.269 162.836,126.602 168.5,124.5 Z"/></g>
<g><path style="opacity:0.989" fill="#183770" d="M 14.5,106.5 C 22.1667,106.5 29.8333,106.5 37.5,106.5C 37.5,133.167 37.5,159.833 37.5,186.5C 29.8333,186.5 22.1667,186.5 14.5,186.5C 14.5,159.833 14.5,133.167 14.5,106.5 Z"/></g>
<g><path style="opacity:0.913" fill="#183770" d="M 61.5,204.5 C 72.2232,202.462 81.0565,205.462 88,213.5C 89.8681,216.605 91.0348,219.938 91.5,223.5C 87.1161,223.826 82.7828,223.492 78.5,222.5C 72.393,214.925 65.893,214.592 59,221.5C 54.9866,229.949 56.8199,236.782 64.5,242C 71.7134,243.898 76.38,241.398 78.5,234.5C 82.8333,234.5 87.1667,234.5 91.5,234.5C 90.9868,243.362 86.6535,249.529 78.5,253C 54.861,258.019 43.361,248.519 44,224.5C 45.8029,214.203 51.6362,207.537 61.5,204.5 Z"/></g>
<g><path style="opacity:0.939" fill="#183770" d="M 115.5,204.5 C 117.924,204.192 120.257,204.526 122.5,205.5C 130.077,221.314 137.077,237.314 143.5,253.5C 139.116,253.826 134.783,253.492 130.5,252.5C 129.833,251.167 129.167,249.833 128.5,248.5C 122.167,247.167 115.833,247.167 109.5,248.5C 108.833,249.833 108.167,251.167 107.5,252.5C 103.217,253.492 98.8839,253.826 94.5,253.5C 94.3433,252.127 94.51,250.793 95,249.5C 101.845,234.478 108.678,219.478 115.5,204.5 Z M 118.5,225.5 C 120.263,228.864 121.93,232.364 123.5,236C 120.446,236.821 117.446,236.655 114.5,235.5C 116.036,232.222 117.369,228.889 118.5,225.5 Z"/></g>
<g><path style="opacity:0.936" fill="#183770" d="M 212.5,204.5 C 227.099,201.961 237.099,207.461 242.5,221C 235.679,222.515 229.679,221.182 224.5,217C 210.828,215.794 205.661,221.961 209,235.5C 212.77,242.414 218.27,244.247 225.5,241C 226.833,239.667 228.167,238.333 229.5,237C 226.183,236.502 222.85,236.335 219.5,236.5C 219.5,232.833 219.5,229.167 219.5,225.5C 227.167,225.5 234.833,225.5 242.5,225.5C 244.313,247.428 234.313,256.928 212.5,254C 198.621,249.092 192.788,239.259 195,224.5C 196.803,214.203 202.636,207.537 212.5,204.5 Z"/></g>
<g><path style="opacity:0.934" fill="#183770" d="M 267.5,204.5 C 293.518,203.853 303.351,216.187 297,241.5C 290.266,252.609 280.433,256.776 267.5,254C 255.794,250.109 249.794,241.943 249.5,229.5C 249.91,216.972 255.91,208.639 267.5,204.5 Z M 272.5,216.5 C 281.014,216.68 285.68,221.013 286.5,229.5C 285.917,237.007 281.917,241.34 274.5,242.5C 267.083,241.34 263.083,237.007 262.5,229.5C 263.227,223 266.56,218.667 272.5,216.5 Z"/></g>
<g><path style="opacity:0.956" fill="#183770" d="M 149.5,205.5 C 158.506,205.334 167.506,205.5 176.5,206C 186.89,210.621 190.39,218.454 187,229.5C 185.939,232.562 184.106,235.062 181.5,237C 185.204,242.181 188.204,247.681 190.5,253.5C 185.489,253.666 180.489,253.499 175.5,253C 172.954,249.41 170.787,245.577 169,241.5C 167.211,239.771 165.044,239.104 162.5,239.5C 162.5,244.167 162.5,248.833 162.5,253.5C 158.167,253.5 153.833,253.5 149.5,253.5C 149.5,237.5 149.5,221.5 149.5,205.5 Z M 162.5,216.5 C 166.584,216.043 170.417,216.71 174,218.5C 176.364,222.546 175.53,225.713 171.5,228C 168.518,228.498 165.518,228.665 162.5,228.5C 162.5,224.5 162.5,220.5 162.5,216.5 Z"/></g>
</svg>
