<?xml version="1.0" encoding="UTF-8"?>
<!DOCTYPE svg PUBLIC "-//W3C//DTD SVG 1.1//EN" "http://www.w3.org/Graphics/SVG/1.1/DTD/svg11.dtd">
<svg xmlns="http://www.w3.org/2000/svg" version="1.1" width="512px" height="512px" style="shape-rendering:geometricPrecision; text-rendering:geometricPrecision; image-rendering:optimizeQuality; fill-rule:evenodd; clip-rule:evenodd" xmlns:xlink="http://www.w3.org/1999/xlink">
<g><path style="opacity:0.998" fill="#231f20" d="M 72.5,15.5 C 203.167,15.3333 333.834,15.5 464.5,16C 480.667,20.1667 490.833,30.3333 495,46.5C 495.667,185.833 495.667,325.167 495,464.5C 490.833,480.667 480.667,490.833 464.5,495C 333.833,495.667 203.167,495.667 72.5,495C 64.3333,492.167 58.8333,486.667 56,478.5C 55.5001,462.837 55.3334,447.17 55.5,431.5C 38.6411,434.151 26.1411,428.151 18,413.5C 12.6947,399.048 15.1947,386.215 25.5,375C 34.3348,368.144 44.3348,365.644 55.5,367.5C 55.5,356.833 55.5,346.167 55.5,335.5C 38.6411,338.151 26.1411,332.151 18,317.5C 12.6947,303.048 15.1947,290.215 25.5,279C 34.3348,272.144 44.3348,269.644 55.5,271.5C 55.5,260.833 55.5,250.167 55.5,239.5C 38.6411,242.151 26.1411,236.151 18,221.5C 12.6947,207.048 15.1947,194.215 25.5,183C 34.3348,176.144 44.3348,173.644 55.5,175.5C 55.5,164.833 55.5,154.167 55.5,143.5C 38.6411,146.151 26.1411,140.151 18,125.5C 12.6947,111.048 15.1947,98.215 25.5,87C 34.3348,80.1438 44.3348,77.6438 55.5,79.5C 55.3334,63.8298 55.5001,48.1631 56,32.5C 59.0191,24.3156 64.5191,18.649 72.5,15.5 Z"/></g>
<g><path style="opacity:1" fill="#2487fe" d="M 76.5,31.5 C 93.5,31.5 110.5,31.5 127.5,31.5C 127.5,180.833 127.5,330.167 127.5,479.5C 109.739,479.973 92.0726,479.473 74.5,478C 73.2986,477.097 72.4652,475.931 72,474.5C 71.5001,460.171 71.3334,445.837 71.5,431.5C 88.7381,433.303 101.238,426.636 109,411.5C 114.528,381.843 102.028,367.176 71.5,367.5C 71.5,356.833 71.5,346.167 71.5,335.5C 88.7381,337.303 101.238,330.636 109,315.5C 114.528,285.843 102.028,271.176 71.5,271.5C 71.5,260.833 71.5,250.167 71.5,239.5C 88.7381,241.303 101.238,234.636 109,219.5C 114.528,189.843 102.028,175.176 71.5,175.5C 71.5,164.833 71.5,154.167 71.5,143.5C 88.7381,145.303 101.238,138.636 109,123.5C 114.528,93.8426 102.028,79.176 71.5,79.5C 71.3334,65.1628 71.5001,50.8295 72,36.5C 73.025,34.313 74.525,32.6464 76.5,31.5 Z"/></g>
<g><path style="opacity:1" fill="#fecc00" d="M 447.5,268.5 C 416.167,377.833 345.833,448.167 236.5,479.5C 205.5,479.5 174.5,479.5 143.5,479.5C 143.5,330.167 143.5,180.833 143.5,31.5C 238.501,31.3333 333.501,31.5 428.5,32C 437.573,34.7392 443.74,40.5725 447,49.5C 447.5,122.499 447.667,195.499 447.5,268.5 Z"/></g>
<g><path style="opacity:1" fill="#fe9711" d="M 455.5,32.5 C 467.145,32.2406 474.978,37.9073 479,49.5C 479.667,186.833 479.667,324.167 479,461.5C 475.059,472.799 467.225,478.632 455.5,479C 459.765,473.21 462.265,466.71 463,459.5C 463.667,322.5 463.667,185.5 463,48.5C 461.806,42.4512 459.306,37.1179 455.5,32.5 Z"/></g>
<g><path style="opacity:1" fill="#fc9611" d="M 42.5,95.5 C 56.504,95.3334 70.504,95.5001 84.5,96C 95.4313,101.362 98.2646,109.528 93,120.5C 90.7357,123.433 87.9024,125.6 84.5,127C 70.5,127.667 56.5,127.667 42.5,127C 31.5687,121.638 28.7354,113.472 34,102.5C 36.4412,99.5464 39.2745,97.2131 42.5,95.5 Z"/></g>
<g><path style="opacity:1" fill="#252020" d="M 281.5,135.5 C 341.446,133.2 383.613,159.2 408,213.5C 422.084,257.255 415.084,297.255 387,333.5C 352.772,369.85 311.272,382.35 262.5,371C 220.571,357.405 193.071,329.571 180,287.5C 167.648,229.859 185.815,184.692 234.5,152C 249.339,143.778 265.006,138.278 281.5,135.5 Z"/></g>
<g><path style="opacity:1" fill="#cfe5f6" d="M 281.5,151.5 C 327.848,148.255 363.014,166.255 387,205.5C 406.419,246.392 402.752,285.059 376,321.5C 374.414,287.975 358.247,264.641 327.5,251.5C 345.046,232.845 347.879,212.179 336,189.5C 322.612,171.257 304.779,164.424 282.5,169C 255.65,179.534 244.484,199.034 249,227.5C 251.426,236.859 256.259,244.692 263.5,251C 232.843,264.468 216.676,287.968 215,321.5C 189.797,287.48 185.131,250.813 201,211.5C 218.012,178.322 244.845,158.322 281.5,151.5 Z"/></g>
<g><path style="opacity:1" fill="#ea1c23" d="M 288.5,183.5 C 314.853,182.688 327.687,195.354 327,221.5C 321.305,240.607 308.472,249.107 288.5,247C 270.113,240.734 261.946,227.901 264,208.5C 267.683,195.651 275.85,187.318 288.5,183.5 Z"/></g>
<g><path style="opacity:1" fill="#fc9611" d="M 42.5,191.5 C 56.504,191.333 70.504,191.5 84.5,192C 95.4313,197.362 98.2646,205.528 93,216.5C 90.7357,219.433 87.9024,221.6 84.5,223C 70.5,223.667 56.5,223.667 42.5,223C 31.5687,217.638 28.7354,209.472 34,198.5C 36.4412,195.546 39.2745,193.213 42.5,191.5 Z"/></g>
<g><path style="opacity:1" fill="#eb1c23" d="M 278.5,263.5 C 290.88,263.13 303.214,263.63 315.5,265C 337.458,270.291 351.625,283.791 358,305.5C 359.541,316.116 359.875,326.783 359,337.5C 330.405,358.684 298.905,364.517 264.5,355C 252.466,351.277 241.633,345.444 232,337.5C 226.611,299.209 242.111,274.543 278.5,263.5 Z"/></g>
<g><path style="opacity:1" fill="#eabe00" d="M 447.5,268.5 C 447.667,332.834 447.5,397.168 447,461.5C 443.833,470 438,475.833 429.5,479C 365.168,479.5 300.834,479.667 236.5,479.5C 345.833,448.167 416.167,377.833 447.5,268.5 Z"/></g>
<g><path style="opacity:1" fill="#fc9611" d="M 42.5,287.5 C 56.504,287.333 70.504,287.5 84.5,288C 95.4313,293.362 98.2646,301.528 93,312.5C 90.7357,315.433 87.9024,317.6 84.5,319C 70.5,319.667 56.5,319.667 42.5,319C 31.5687,313.638 28.7354,305.472 34,294.5C 36.4412,291.546 39.2745,289.213 42.5,287.5 Z"/></g>
<g><path style="opacity:1" fill="#fc9611" d="M 42.5,383.5 C 56.504,383.333 70.504,383.5 84.5,384C 95.4313,389.362 98.2646,397.528 93,408.5C 90.7357,411.433 87.9024,413.6 84.5,415C 70.5,415.667 56.5,415.667 42.5,415C 31.5687,409.638 28.7354,401.472 34,390.5C 36.4412,387.546 39.2745,385.213 42.5,383.5 Z"/></g>
</svg>
