<?xml version="1.0" encoding="iso-8859-1"?>
<!-- Uploaded to: SVG Repo, www.svgrepo.com, Generator: SVG Repo Mixer Tools -->
<svg height="800px" width="800px" version="1.1" id="Layer_1" xmlns="http://www.w3.org/2000/svg" xmlns:xlink="http://www.w3.org/1999/xlink" 
	 viewBox="0 0 512 512" xml:space="preserve">
<g>
	<polygon style="fill:#6D4C41;" points="247.467,287.147 247.467,490.325 34.133,395.52 34.133,191.488 	"/>
	<path style="fill:#6D4C41;" d="M264.533,287.147v203.179l213.333-94.805V191.488L264.533,287.147z M426.667,290.133
		c0,3.328-1.963,6.4-5.035,7.765l-93.867,42.667c-1.109,0.512-2.304,0.768-3.499,0.768c-1.621,0-3.243-0.427-4.608-1.365
		c-2.475-1.536-3.925-4.267-3.925-7.168v-42.667c0-3.328,1.963-6.4,5.035-7.765l93.867-42.667c2.645-1.195,5.717-0.939,8.107,0.597
		c2.475,1.536,3.925,4.267,3.925,7.168V290.133z"/>
</g>
<path d="M422.741,240.299c-2.389-1.536-5.461-1.792-8.107-0.597l-93.867,42.667c-3.072,1.365-5.035,4.437-5.035,7.765V332.8
	c0,2.901,1.451,5.632,3.925,7.168c1.365,0.939,2.987,1.365,4.608,1.365c1.195,0,2.389-0.256,3.499-0.768l93.867-42.667
	c3.072-1.365,5.035-4.437,5.035-7.765v-42.667C426.667,244.565,425.216,241.835,422.741,240.299z M409.6,284.672l-76.8,34.901
	v-23.979l76.8-34.901V284.672z"/>
<path d="M506.965,111.701L259.499,0.768c-2.219-1.024-4.779-1.024-6.997,0L5.035,111.701C1.963,113.067,0,116.139,0,119.467v51.2
	c0,3.328,1.963,6.4,5.035,7.765l12.032,5.376v217.259c0,3.413,1.963,6.4,5.035,7.765l230.4,102.4
	c1.109,0.512,2.304,0.768,3.499,0.768c1.195,0,2.389-0.256,3.499-0.768l230.4-102.4c3.072-1.365,5.035-4.352,5.035-7.765V183.808
	l12.032-5.376c3.072-1.365,5.035-4.437,5.035-7.765v-51.2C512,116.139,510.037,113.067,506.965,111.701z M247.467,490.325
	L34.133,395.52V191.488l213.333,95.659V490.325z M247.467,268.459L17.067,165.12v-32.512l230.4,103.339V268.459z M256,221.013
	L29.355,119.467L256,17.92l226.645,101.547L256,221.013z M477.867,395.52l-213.333,94.805V287.147l213.333-95.659V395.52z
	 M494.933,165.12l-230.4,103.339v-32.512l230.4-103.339V165.12z"/>
<polygon style="fill:#717272;" points="409.6,260.693 409.6,284.672 332.8,319.573 332.8,295.595 "/>
<g>
	<polygon style="fill:#8D6E63;" points="494.933,132.608 494.933,165.12 264.533,268.459 264.533,235.947 	"/>
	<polygon style="fill:#8D6E63;" points="247.467,235.947 247.467,268.459 17.067,165.12 17.067,132.608 	"/>
	<polygon style="fill:#8D6E63;" points="482.645,119.467 256,221.013 29.355,119.467 256,17.92 	"/>
</g>
</svg>